<?xml version="1.0" encoding="UTF-8" standalone="no"?>
<!-- Created with Inkscape (http://www.inkscape.org/) -->

<svg
   xmlns:dc="http://purl.org/dc/elements/1.1/"
   xmlns:cc="http://creativecommons.org/ns#"
   xmlns:rdf="http://www.w3.org/1999/02/22-rdf-syntax-ns#"
   xmlns:svg="http://www.w3.org/2000/svg"
   xmlns="http://www.w3.org/2000/svg"
   xmlns:sodipodi="http://sodipodi.sourceforge.net/DTD/sodipodi-0.dtd"
   xmlns:inkscape="http://www.inkscape.org/namespaces/inkscape"
   width="210mm"
   height="82mm"
   viewBox="0 0 210 82"
   version="1.1"
   id="svg8"
   inkscape:version="0.92.1 r"
   sodipodi:docname="c2y.svg">
  <defs
     id="defs2" />
  <sodipodi:namedview
     id="base"
     pagecolor="#ffffff"
     bordercolor="#666666"
     borderopacity="1.0"
     inkscape:pageopacity="0.0"
     inkscape:pageshadow="2"
     inkscape:zoom="0.7"
     inkscape:cx="654.66682"
     inkscape:cy="32.862279"
     inkscape:document-units="mm"
     inkscape:current-layer="layer1"
     showgrid="false"
     inkscape:window-width="1366"
     inkscape:window-height="740"
     inkscape:window-x="0"
     inkscape:window-y="0"
     inkscape:window-maximized="1" />
  <metadata
     id="metadata5">
    <rdf:RDF>
      <cc:Work
         rdf:about="">
        <dc:format>image/svg+xml</dc:format>
        <dc:type
           rdf:resource="http://purl.org/dc/dcmitype/StillImage" />
        <dc:title></dc:title>
      </cc:Work>
    </rdf:RDF>
  </metadata>
  <g
     inkscape:label="Layer 1"
     inkscape:groupmode="layer"
     id="layer1"
     transform="translate(0,-215)">
    <path
       style="fill:#ffffff;fill-opacity:1;stroke:#ffffff;stroke-width:0.69544542;stroke-opacity:1"
       d="m 198.48202,215.75366 c -0.24048,-0.0158 -0.84369,0.98993 -1.34199,2.23303 -0.49833,1.2431 -1.81949,3.3229 -2.93527,4.62227 -4.28836,4.99396 -6.20762,12.57163 -7.41763,29.28069 -0.54661,7.54662 -0.56485,11.90301 -0.0611,14.52558 0.51537,2.68447 0.725,3.95565 0.64926,4.46878 l 1.22925,2.27106 0.96847,1.23062 c 1.63434,2.07771 3.75007,2.40217 4.69153,0.71989 0.56591,-1.01124 3.1383,-1.4032 10.77533,-1.64082 2.43713,-0.0757 5.23811,-24.70541 3.05752,-26.88603 -0.20108,-0.20107 -0.2266,-1.48342 -0.0571,-2.84969 0.37303,-3.00754 -2.19742,-15.91953 -3.59676,-18.068 -0.55176,-0.84715 -1.00378,-2.03449 -1.00378,-2.6378 0,-1.11762 -4.16197,-7.22016 -4.95776,-7.26958 z m -160.033937,0.23906 c -8.028306,-0.17295 -17.609464,3.75945 -24.079797,10.13014 -10.0345261,9.87989 -15.813246,32.622 -11.9366735,46.97652 1.783908,6.60568 3.6666942,10.02168 8.3453445,15.14088 3.818412,4.17793 8.503134,6.62405 14.281082,7.45838 7.799914,1.12627 18.54006,-1.8287 23.761956,-6.53882 0.463794,-0.41831 1.885042,-1.51249 3.158026,-2.43134 1.272963,-0.91885 3.154206,-3.37092 4.180823,-5.44811 1.287444,-2.60506 1.513149,-3.48904 0.726684,-2.84969 -1.003618,0.81592 -1.071842,0.76108 -0.56505,-0.46318 0.31665,-0.76499 0.611639,-2.01674 0.656058,-2.78178 0.04442,-0.76496 0.330133,-1.77832 0.634322,-2.25205 0.381888,-0.59479 0.216322,-0.73339 -0.533802,-0.44552 -0.752188,0.28863 -0.360049,-0.94413 1.275431,-4.00696 3.35275,-6.2787 3.594194,-7.33942 1.794304,-7.91069 -3.434547,-1.09007 -6.345568,0.31857 -11.417801,5.52417 -5.121253,5.25597 -8.683143,7.16553 -11.872831,6.36496 -2.945155,-0.73918 -6.705622,-4.72792 -8.892736,-9.43198 -3.001432,-6.45557 -2.967807,-11.79264 0.116814,-18.44153 4.777327,-10.29716 12.895797,-15.04688 21.814166,-12.76115 4.103622,1.05172 5.32107,0.19082 5.907211,-4.17947 0.760727,-5.67167 -3.935581,-9.46426 -14.021646,-11.32272 -1.069908,-0.19713 -2.184985,-0.30535 -3.331885,-0.33006 z m 63.804397,0.0978 c -6.646603,-0.008 -10.974144,1.33631 -17.16881,5.32993 -6.780071,4.37105 -23.514748,22.10921 -23.514748,24.92466 0,3.69221 14.030123,5.99667 16.059085,2.6378 3.191733,-5.28382 8.509694,-9.97391 13.639965,-12.02767 4.451365,-1.78202 9.941338,-2.98428 9.941338,-2.17735 0,0.24971 -1.12961,2.71559 -2.510127,5.47936 -3.898446,7.80406 -9.645842,15.94064 -14.42098,20.41648 -4.570278,4.28383 -11.200417,9.29615 -12.296614,9.29615 -1.117567,0 -2.587159,3.01658 -2.963793,6.08515 -0.1995,1.62558 -0.08679,2.95564 0.249913,2.95564 0.681141,0 0.100407,3.84535 -0.866586,5.73742 -0.825787,1.61532 0.522098,1.62112 1.426205,0.005 1.132943,-2.02449 1.671474,-0.43945 0.774225,2.27922 -1.143089,3.46367 -0.04153,4.45162 5.770026,5.17237 2.506992,0.3109 6.070175,1.04801 7.91748,1.6381 1.847333,0.59009 3.984964,1.22942 4.749947,1.42077 0.765012,0.19162 5.92868,0.25591 11.474854,0.14262 8.43193,-0.17216 10.82453,-0.469 14.60435,-1.81603 4.90601,-1.74835 10.69012,-4.88974 10.53084,-5.71841 -0.0547,-0.28419 0.53724,-1.15391 1.31619,-1.93285 0.77907,-0.77894 1.20015,-1.76605 0.93585,-2.19364 -0.29212,-0.47268 -0.1648,-0.58284 0.32328,-0.28117 0.6962,0.43028 1.08739,-0.31997 0.91549,-1.75355 -0.0284,-0.23578 1.03084,-1.01053 2.35256,-1.72231 2.38159,-1.28256 3.39867,-2.9005 1.32298,-2.104 -0.61893,0.23761 -0.89836,0.12117 -0.6547,-0.27302 0.23367,-0.37812 -0.0352,-0.68729 -0.59765,-0.68729 -1.40651,0 -1.02801,-1.72929 0.80547,-3.68097 2.32315,-2.47288 1.83017,-2.79902 -1.20074,-0.79325 -2.58787,1.71255 -3.04169,1.78241 -8.86692,1.3515 -4.55175,-0.33668 -8.70475,-0.082 -16.05908,0.98612 -12.993117,1.88726 -12.714138,1.92267 -9.305663,-1.16677 7.940013,-7.19674 14.007693,-13.3856 16.192193,-16.51682 5.31093,-7.61259 8.94436,-18.37387 8.94436,-26.48941 0,-3.96895 -0.20266,-4.57074 -2.2602,-6.72762 -1.24312,-1.30315 -4.45086,-3.58953 -7.12831,-5.0801 -4.51858,-2.5154 -5.26761,-2.71132 -10.43168,-2.71658 z m 33.20887,0.0421 c -0.25283,0.0308 -0.4432,0.15984 -0.57863,0.37897 -0.26739,0.43278 -0.45282,3.64158 -0.41156,7.12967 0.11854,10.00864 3.45726,18.6611 12.5968,32.64519 l 3.55601,5.44131 -4.1849,8.4676 c -5.47313,11.07617 -11.13404,24.74103 -10.43032,25.17593 0.30592,0.18899 1.0498,-0.15061 1.6544,-0.75521 0.60457,-0.60454 1.10021,-0.80343 1.10021,-0.44144 0,1.43923 4.17238,1.50403 6.6665,0.10322 1.36422,-0.76622 2.84792,-1.31941 3.29657,-1.22926 0.44868,0.0902 1.52045,-0.22604 2.38109,-0.70223 0.86061,-0.47628 1.56475,-0.66039 1.56475,-0.40884 0,0.25154 0.50012,0.0423 1.11244,-0.4659 0.61236,-0.50819 1.60742,-0.9967 2.20994,-1.08527 1.5591,-0.22894 5.71841,-2.54765 5.71841,-3.18792 0,-0.25832 0.22423,-0.46436 0.51479,-0.51479 l 15.62986,-24.31342 0.12769,0.0815 c 0.0989,-0.0763 0.21146,-0.1304 0.33957,-0.1304 0.78436,0 3.11326,-4.84768 2.58347,-5.37748 -0.218,-0.21789 0.10701,-0.76552 0.72261,-1.21567 0.61561,-0.45015 1.11924,-1.65381 1.11924,-2.67583 0,-1.02203 0.23848,-1.85815 0.52973,-1.85815 0.29126,0 0.74024,-1.40826 0.99835,-3.1295 0.25811,-1.72122 0.77386,-3.1295 1.14639,-3.1295 0.43272,0 0.42688,-0.46924 -0.0176,-1.29989 -0.38245,-0.71473 -0.50341,-1.49193 -0.26894,-1.72639 0.95179,-0.95187 0.90226,-7.2681 -0.0788,-10.04864 -0.82005,-2.32419 -0.8919,-3.75251 -0.3369,-6.75479 0.58136,-3.14479 0.50325,-4.23171 -0.45232,-6.24542 -0.63629,-1.34091 -1.37618,-2.43814 -1.64353,-2.43814 -1.00063,0 -4.14195,4.00347 -7.36737,9.38851 -1.83281,3.05995 -5.60215,8.77061 -8.37659,12.69053 l -5.0447,7.12695 -3.53971,-4.5041 c -1.94686,-2.47737 -3.5397,-4.70262 -3.5397,-4.94417 0,-1.20792 -7.65821,-10.73033 -11.63377,-14.46581 -4.2794,-4.0209 -6.56791,-5.71466 -7.66349,-5.58123 z m 62.36461,58.90776 c -0.51783,-0.002 -0.92842,0.48945 -1.84591,1.61093 -0.90472,1.10587 -2.33384,2.79402 -3.17705,3.75025 -3.01128,3.41494 -3.95824,5.25022 -3.96349,7.68386 -0.005,2.67818 0.99464,4.13871 2.83203,4.13871 0.64164,0 1.58417,0.50406 2.09585,1.12059 0.51168,0.61653 1.56751,1.37832 2.34577,1.69379 0.77829,0.31544 1.45728,0.59437 1.50906,0.61802 0.44355,0.20712 4.08308,-2.20455 5.569,-3.69048 1.58493,-1.58492 1.84063,-2.39038 1.73182,-5.46441 -0.14704,-4.15434 -2.45373,-8.68696 -5.40464,-10.62048 -0.82098,-0.53794 -1.28969,-0.83891 -1.69244,-0.84078 z"
       id="path25"
       inkscape:connector-curvature="0" />
    <ellipse
       style="opacity:1;fill:#ff0000;fill-opacity:1;stroke:#ffffff;stroke-width:0.66028142;stroke-miterlimit:4;stroke-dasharray:none;stroke-opacity:1"
       id="path840"
       cx="174.54283"
       cy="-54.036564"
       rx="0.07799083"
       ry="4.9914131"
       transform="rotate(33.499951)" />
    <ellipse
       style="opacity:1;fill:#ff0000;fill-opacity:1;stroke:#ffffff;stroke-width:0.29608497;stroke-miterlimit:4;stroke-dasharray:none;stroke-opacity:1"
       id="path840-3"
       cx="174.15564"
       cy="-44.730412"
       rx="0.035158116"
       ry="2.2264657"
       transform="matrix(0.8406573,0.54156744,-0.56232929,0.8269134,0,0)" />
    <ellipse
       style="opacity:1;fill:#ff0000;fill-opacity:1;stroke:#ffffff;stroke-width:1.5770731;stroke-miterlimit:4;stroke-dasharray:none;stroke-opacity:1"
       id="path857"
       cx="168.7296"
       cy="59.561073"
       rx="0.68302673"
       ry="0.93140012" />
    <ellipse
       style="opacity:1;fill:#ff0000;fill-opacity:1;stroke:#ffffff;stroke-width:1.5770731;stroke-miterlimit:4;stroke-dasharray:none;stroke-opacity:1"
       id="path859"
       cx="175.66805"
       cy="-25.635887"
       rx="1.2328434"
       ry="5.2643924"
       transform="rotate(30)" />
  </g>
</svg>
