<?xml version="1.0" encoding="UTF-8" standalone="no"?>
<!-- Created with Inkscape (http://www.inkscape.org/) -->

<svg
   xmlns:dc="http://purl.org/dc/elements/1.1/"
   xmlns:cc="http://creativecommons.org/ns#"
   xmlns:rdf="http://www.w3.org/1999/02/22-rdf-syntax-ns#"
   xmlns:svg="http://www.w3.org/2000/svg"
   xmlns="http://www.w3.org/2000/svg"
   xmlns:sodipodi="http://sodipodi.sourceforge.net/DTD/sodipodi-0.dtd"
   xmlns:inkscape="http://www.inkscape.org/namespaces/inkscape"
   width="224mm"
   height="170mm"
   viewBox="0 0 793.70079 602.3622"
   id="svg2"
   version="1.1"
   inkscape:version="0.91 r13725"
   sodipodi:docname="new.svg">
  <defs
     id="defs4" />
  <sodipodi:namedview
     id="base"
     pagecolor="#ffffff"
     bordercolor="#666666"
     borderopacity="1.0"
     inkscape:pageopacity="0.0"
     inkscape:pageshadow="2"
     inkscape:zoom="0.35"
     inkscape:cx="375"
     inkscape:cy="520"
     inkscape:document-units="px"
     inkscape:current-layer="layer1"
     showgrid="false"
     inkscape:window-width="1366"
     inkscape:window-height="705"
     inkscape:window-x="0"
     inkscape:window-y="30"
     inkscape:window-maximized="1" />
  <metadata
     id="metadata7">
    <rdf:RDF>
      <cc:Work
         rdf:about="">
        <dc:format>image/svg+xml</dc:format>
        <dc:type
           rdf:resource="http://purl.org/dc/dcmitype/StillImage" />
        <dc:title></dc:title>
      </cc:Work>
    </rdf:RDF>
  </metadata>
  <g
     inkscape:label="Camada 1"
     inkscape:groupmode="layer"
     id="layer1"
     transform="translate(0,-450)">
    <path
       style="fill:#000000"
       d="m 543.41632,1045.7765 c -5.396,-0.7649 -15.33845,-4.393 -19.17684,-6.9979 -0.99268,-0.6736 -4.28735,-2.6886 -7.32149,-4.4776 -3.03418,-1.7891 -5.63682,-3.4473 -5.78369,-3.6849 -0.14687,-0.2376 -1.11623,-0.8612 -2.15408,-1.3858 -1.90938,-0.9649 -6.17417,-3.98 -8.65538,-6.1191 -0.74451,-0.6419 -2.05977,-1.4642 -2.92278,-1.8274 -1.8888,-0.7949 -4.99473,-2.8614 -7.45527,-4.9604 -1.7853,-1.5229 -9.17267,-6.8639 -13.53659,-9.7867 -1.24086,-0.8311 -3.67744,-2.7518 -5.41464,-4.2683 -1.73719,-1.5165 -4.78293,-3.96654 -6.76829,-5.44455 -1.98537,-1.478 -4.42196,-3.4682 -5.41464,-4.4227 -0.99268,-0.9544 -3.22622,-2.8349 -4.96342,-4.1786 -1.73719,-1.3439 -4.59689,-3.6678 -6.35488,-5.1644 -1.758,-1.4965 -6.80913,-5.3607 -11.22472,-8.5869 -9.32044,-6.8099 -18.16859,-13.7935 -23.9326,-18.8894 -2.23354,-1.9747 -5.3207,-4.5842 -6.86035,-5.7991 -1.53969,-1.2149 -3.36713,-2.9745 -4.06097,-3.9103 -1.77298,-2.3911 -6.29732,-6.33776 -23.73844,-20.7073 -1.28715,-1.06045 -4.53057,-3.46676 -7.20761,-5.34731 -2.79765,-1.96529 -6.78273,-5.36654 -9.37183,-7.99877 l -4.50443,-4.57952 -2.8111,0.0406 c -2.56013,0.037 -9.04673,1.40632 -17.927,3.78424 -5.76515,1.54376 -10.021,2.26576 -13.35786,2.26616 -2.79179,3.2e-4 -3.36222,0.14566 -4.42024,1.1262 -0.66817,0.61921 -1.46037,1.68522 -1.76053,2.36891 -0.3001,0.68368 -1.73809,3.44492 -3.19549,6.13609 -2.48987,4.59774 -2.63368,5.02916 -2.38271,7.14822 0.31518,2.66129 2.10363,5.51273 6.17354,9.8429 1.51615,1.61311 3.64559,4.25277 4.73208,5.86587 1.08654,1.6131 3.00972,4.2119 4.27382,5.775 1.68963,2.0893 2.41019,3.4316 2.72058,5.0683 0.2322,1.2246 0.8501,3.0652 1.37311,4.0903 2.44606,4.7947 3.13904,19.0254 1.34914,27.7066 -0.77334,3.751 -2.88636,8.1041 -5.24574,10.80712 -1.09376,1.25314 -2.86173,3.39174 -3.92877,4.75264 -1.23242,1.5716 -2.91709,3.0235 -4.61814,3.9799 -1.47287,0.828 -3.88482,2.3294 -5.35986,3.3362 -3.60015,2.4575 -6.00506,3.4988 -8.10806,3.5107 -1.53352,0.01 -5.4238,0.7493 -11.90683,2.2668 -3.7228,0.8714 -6.76327,0.2969 -7.19653,-1.3599 -0.24883,-0.9515 -0.26599,-0.9579 -3.06224,-1.1404 -5.85762,-0.3823 -13.99819,-4.9015 -20.16818,-11.1962 -3.08082,-3.1431 -3.8587,-4.31514 -6.8878,-10.37806 -1.99061,-3.9844 -3.60014,-7.8485 -3.85927,-9.2653 -0.58602,-3.2042 -0.56775,-13.0878 0.0322,-17.4009 0.36031,-2.5906 0.3419,-3.7999 -0.0755,-4.9541 -0.51038,-1.4115 -0.45756,-1.6393 0.69869,-3.0134 0.68794,-0.8176 2.04158,-3.1509 3.00807,-5.1852 0.96649,-2.0343 2.49466,-4.7854 3.39592,-6.1135 2.60551,-3.8393 2.95859,-4.9992 2.63639,-8.66013 -0.41278,-4.68997 -2.23726,-8.20786 -6.48845,-12.51074 -3.92413,-3.97181 -6.00507,-5.37994 -7.95406,-5.38237 -0.75311,0 -2.57231,-0.42451 -4.04267,-0.94129 -2.79189,-0.98127 -3.17515,-0.98109 -10.57161,0.005 -4.45346,0.59358 -5.98981,1.41837 -8.82587,4.73799 -1.25533,1.4694 -3.42096,3.20185 -5.64138,4.51301 -1.98215,1.17046 -3.70983,2.2995 -3.8393,2.509 -0.50116,0.81089 -6.89757,3.93915 -8.81367,4.31042 -1.10999,0.21509 -4.66143,0.40018 -7.8921,0.41128 -6.64317,0.023 -6.98233,0.16068 -10.03181,4.07483 -0.87282,1.12029 -1.76736,2.0369 -1.98788,2.0369 -0.22051,0 -1.25936,0.78064 -2.30854,1.73474 -1.90746,1.7345 -7.01068,4.5823 -8.21154,4.5823 -1.02139,0 -1.2713,-0.8629 -0.56113,-1.9375 0.36181,-0.5475 2.02783,-2.5183 3.70227,-4.37954 4.25719,-4.73239 5.64449,-6.86644 5.64449,-8.683 0,-2.11243 -2.10955,-4.13178 -4.31635,-4.13178 -1.40215,0 -2.02196,0.43746 -5.08262,3.5872 -3.47525,3.57641 -8.75531,7.20056 -9.8683,6.77348 -1.23816,-0.47513 -0.44538,-1.5965 3.58739,-5.07414 6.76395,-5.83296 8.37261,-9.12136 6.02953,-12.32556 -1.60229,-2.19117 -3.76177,-6.77403 -4.13868,-8.78313 -0.91457,-4.87511 -6.52819,-8.24712 -16.8939,-10.14793 -1.61311,-0.29582 -3.74513,-1.00459 -4.73781,-1.57507 -0.99268,-0.57048 -2.3125,-1.18711 -2.93293,-1.37031 -2.02049,-0.5966 -8.20713,-4.45606 -8.94281,-5.57883 -0.71251,-1.08744 -3.03011,-2.32523 -4.35367,-2.32523 -1.91732,0 -0.69939,1.80975 9.38321,13.94278 1.44618,1.74031 3.47667,4.69372 4.5122,6.56317 1.03553,1.86945 4.15323,6.72096 6.92823,10.78112 3.50451,5.12753 5.61259,8.74645 6.90241,11.84935 1.02133,2.45698 2.44539,5.78707 3.16459,7.40022 4.76085,10.6783 5.36252,12.4945 5.39839,16.2958 0.0135,1.4329 -0.26641,2.4462 -0.89744,3.2484 -0.50441,0.6412 -1.40078,2.2596 -1.99195,3.5963 -1.07648,2.4341 -4.02862,5.3895 -6.85707,6.8647 -1.69116,0.882 -4.65736,0.8376 -8.28267,-0.124 -3.00661,-0.7975 -5.30806,-2.2479 -8.10994,-5.1109 -0.87521,-0.8943 -2.52204,-2.1405 -3.65963,-2.7694 -2.59873,-1.4365 -9.23693,-7.6972 -10.40016,-9.8087 -0.48131,-0.8737 -2.00277,-3.7206 -3.38102,-6.3264 -1.37825,-2.6058 -2.96552,-5.3469 -3.52727,-6.0914 -1.82051,-2.41286 -6.00435,-10.72401 -7.49577,-14.8903 -0.79954,-2.23353 -2.03472,-5.67562 -2.74485,-7.64903 -0.71012,-1.97345 -1.29113,-4.43968 -1.29113,-5.48047 0,-1.04078 -0.60869,-4.19783 -1.35265,-7.0156 -1.23416,-4.67446 -1.85084,-7.2165 -4.58144,-18.8854 -1.44815,-6.18847 -4.071606,-14.02986 -5.084846,-15.19834 -0.65168,-0.7515 -2.04126,-1.3542 -4.548143,-1.97273 -4.10056,-1.01177 -10.11888,-3.74494 -12.29448,-5.58348 -0.98822,-0.83512 -1.6916,-2.01691 -2.1606,-3.63025 -0.62666,-2.15556 -0.62635,-2.85414 0.003,-7.06763 0.55272,-3.70176 0.99197,-5.14553 2.1089,-6.93173 2.14637,-3.43247 2.17572,-5.2471 0.15001,-9.27679 -2.40718,-4.78854 -3.65572,-6.50673 -10.80056,-14.86346 -3.50101,-4.09482 -6.85795,-8.15579 -7.45992,-9.02439 -0.60197,-0.8686 -2.47336,-3.15419 -4.15871,-5.07909 -1.68526,-1.9249 -3.06419,-3.76379 -3.06419,-4.08643 0,-0.32263 -0.99088,-1.9965 -2.20191,-3.71969 -1.21102,-1.7232 -3.12171,-4.79992 -4.24597,-6.83715 -1.12426,-2.03724 -2.94353,-4.87993 -4.0428,-6.31708 -1.0993,-1.43715 -3.30035,-4.90266 -4.89122,-7.70113 -6.94467,-12.21624 -9.23872,-16.63238 -9.66268,-18.60091 -0.18708,-0.8686 -0.80363,-3.0027 -1.37009,-4.74244 -1.8412,-5.65438 -2.25136,-9.83956 -1.4092,-14.37952 0.60851,-3.28036 1.02178,-4.32182 2.43388,-6.13305 1.82735,-2.34384 3.57736,-3.62305 4.95642,-3.62305 0.47306,0 3.48748,1.33331 6.69867,2.9629 5.50687,2.79458 6.06927,3.20897 9.89953,7.29434 7.76838,8.28576 12.10298,14.59867 18.51711,26.96838 3.04086,5.86432 4.26191,8.87116 6.50492,16.0183 1.51876,4.83933 3.24645,10.1186 3.83932,11.73171 0.59287,1.61311 1.21546,3.61485 1.38355,4.4483 0.16809,0.83346 0.88883,2.76242 1.60165,4.28659 0.71281,1.52417 1.7759,4.70973 2.36241,7.07901 0.58652,2.36929 1.61085,5.23686 2.27631,6.37237 0.66545,1.13551 1.7876,3.77359 2.49366,5.86239 2.17482,6.43397 3.814393,8.95135 5.830003,8.95135 1.59912,0 3.730346,-2.50712 5.020876,-5.9064 0.60394,-1.59081 1.64689,-4.00915 2.31767,-5.37409 1.30958,-2.66482 1.54658,-3.44748 3.34751,-11.05488 1.77174,-7.48406 3.90235,-15.19726 4.56297,-16.51877 0.32369,-0.64751 1.1858,-1.42469 1.91579,-1.72706 1.08111,-0.44781 1.54571,-1.14998 2.50516,-3.78612 0.64785,-1.77999 1.17692,-3.46278 1.17573,-3.73952 -10e-4,-0.27675 0.37439,-0.98742 0.83464,-1.57927 0.46026,-0.59185 1.09518,-1.88829 1.41095,-2.88098 0.31577,-0.99268 1.95626,-4.49613 3.64551,-7.78545 2.38683,-4.64762 3.6563,-6.55937 5.69576,-8.57747 2.65553,-2.62772 7.36219,-8.34163 7.36219,-8.93776 0,-0.92844 2.6398,-4.30365 3.71393,-4.74857 1.53638,-0.63639 3.5483,-2.84155 6.34164,-6.95076 1.18091,-1.73719 2.57521,-3.69925 3.09845,-4.36011 0.68973,-0.87115 0.86808,-1.5333 0.64857,-2.40788 -0.40626,-1.61867 -4.00891,-5.42776 -6.88354,-7.27797 -1.28203,-0.82517 -3.61709,-2.58844 -5.18903,-3.9184 -1.57194,-1.32997 -5.09161,-4.00314 -7.82149,-5.94039 -4.68113,-3.32195 -6.15123,-4.52455 -12.99353,-10.62924 -1.53953,-1.37358 -3.8144,-3.18787 -5.05525,-4.03176 -1.24086,-0.84389 -3.37287,-2.52772 -4.73781,-3.74184 -1.36494,-1.21413 -3.89119,-3.03563 -5.61388,-4.04779 -1.72271,-1.01216 -3.956236,-2.59299 -4.963416,-3.51296 -1.00718,-0.91997 -3.455633,-2.64868 -5.441003,-3.84157 -1.98536,-1.19289 -5.3038,-3.50501 -7.3743,-5.13804 -2.0705,-1.63302 -5.24433,-4.08591 -7.05295,-5.45085 -1.80862,-1.36494 -4.68316,-3.61591 -6.38787,-5.00215 -1.70475,-1.38625 -3.96162,-3.06342 -5.01535,-3.72704 -2.05206,-1.29241 -6.81292,-6.94385 -7.68675,-9.12464 -0.29158,-0.72765 -0.81901,-3.31173 -1.17214,-5.74238 -0.55125,-3.79449 -0.55292,-4.80137 -0.0117,-7.12092 0.7853,-3.36629 2.11527,-6.06165 3.95404,-8.01345 1.90952,-2.02688 3.47642,-2.78053 5.79483,-2.78723 2.58093,-0.007 9.05914,-1.83091 14.34862,-4.03879 2.35763,-0.98409 5.40336,-2.15184 6.7683,-2.59499 2.14444,-0.69624 2.50134,-0.97678 2.62619,-2.0643 0.0909,-0.79196 -0.42119,-2.29751 -1.38132,-4.06097 -0.8392,-1.54133 -2.00711,-4.00272 -2.59535,-5.46975 -0.58824,-1.46702 -1.69335,-3.49751 -2.4558,-4.51219 -0.76246,-1.01468 -2.48749,-3.67232 -3.83342,-5.90585 -2.97355,-4.93453 -4.19116,-6.56284 -8.60423,-11.50611 -1.88321,-2.10945 -4.12049,-4.74908 -4.97176,-5.86585 -0.85132,-1.11677 -3.3032,-3.97694 -5.4487,-6.35593 -2.14546,-2.379 -4.27698,-4.91711 -4.73668,-5.64025 -1.1637,-1.83052 -5.4918,-7.28676 -6.0574,-7.63635 -0.25656,-0.15855 -1.19677,-1.73843 -2.08933,-3.51084 -1.6025,-3.1822 -1.61676,-3.25949 -1.13558,-6.1707 0.26798,-1.62147 0.61524,-4.00651 0.77167,-5.30008 0.18212,-1.50626 0.79,-3.12871 1.6905,-4.5122 1.94904,-2.99431 6.81626,-7.64809 9.33235,-8.92308 1.15386,-0.58471 2.38979,-1.42061 2.74644,-1.85755 1.20913,-1.48125 10.01518,-6.91131 13.46295,-8.30161 1.88619,-0.7606 4.74927,-2.06959 6.36238,-2.90887 1.61311,-0.83928 4.96341,-2.23576 7.44512,-3.10331 2.48171,-0.86754 5.42592,-1.98802 6.542693,-2.48997 3.27951,-1.474 9.791516,-3.20981 14.654636,-3.90628 2.48721,-0.35619 5.94289,-1.06004 7.67929,-1.5641 2.56984,-0.74599 4.45849,-0.91646 10.15334,-0.91646 4.9871,0 8.29176,-0.24604 11.50754,-0.85675 2.48121,-0.47122 7.8616,-1.10778 11.95642,-1.41459 7.83079,-0.58674 7.04315,-0.64355 18.81613,1.35717 2.93557,0.49888 10.18023,3.08829 12.52402,4.47637 0.7553,0.44733 2.56242,1.28252 4.01582,1.856 1.4534,0.57347 3.78847,1.8828 5.18903,2.90962 1.40056,1.02682 4.2724,2.93128 6.38185,4.23213 5.3863,3.32161 15.57443,10.49484 18.35518,12.92348 1.28529,1.12253 2.49039,2.04097 2.67799,2.04097 0.77125,0 6.82349,3.37717 8.199,4.57507 0.81519,0.70993 1.65058,1.29078 1.85642,1.29078 0.20584,0 1.56935,1.1355 3.03003,2.52333 1.46068,1.38783 3.5695,2.99602 4.68627,3.57375 1.11677,0.57774 3.2506,2.03111 4.74185,3.22973 4.38257,3.52255 9.16006,7.00603 13.98376,10.19618 2.48171,1.64128 5.73049,3.9104 7.21952,5.0425 6.22139,4.73007 10.30884,7.64715 16.96306,12.10595 3.86992,2.59312 8.337,5.72639 9.92683,6.96282 3.83238,2.98049 12.66275,8.256 13.81922,8.256 1.39941,0 1.9513,-1.00197 2.40617,-4.36856 0.52612,-3.89402 3.58147,-10.15408 6.86923,-14.07419 2.94417,-3.51045 7.22574,-6.83936 11.55095,-8.98086 3.072,-1.52101 3.62763,-1.64614 7.21952,-1.62594 2.2875,0.0129 4.90151,0.33169 6.34216,0.77352 3.36308,1.03141 3.81583,0.9708 5.76871,-0.77216 8.74694,-7.80669 12.28111,-10.33557 18.01381,-12.88991 11.49528,-5.12196 10.93427,-4.74103 13.32745,-9.04972 2.28137,-4.10729 5.16521,-7.21951 6.68979,-7.21951 1.50811,0 4.36821,1.6763 5.57441,3.26717 0.6133,0.80885 1.62326,2.62491 2.24441,4.03569 1.30461,2.96314 0.81341,2.75397 10.90625,4.64417 6.30652,1.18108 9.85152,2.19151 17.6907,5.0423 2.28475,0.83087 4.34574,1.51067 4.58006,1.51067 1.30497,0 8.36656,3.79638 10.36803,5.57396 1.2872,1.14322 2.99813,2.41737 3.80203,2.83143 0.80389,0.41407 3.19341,1.92746 5.31008,3.3631 7.86052,5.33151 11.16196,6.25441 16.97277,4.74457 1.52485,-0.3962 3.4289,-0.72037 4.23122,-0.72037 3.13282,0 11.24832,5.18432 12.73649,8.13628 2.30189,4.56601 -0.32254,11.3174 -6.77615,17.43195 l -2.93591,2.78164 0.28847,4.66349 c 0.15865,2.56491 0.41598,6.90202 0.57183,9.63802 l 0.28341,4.97454 -2.26652,5.1779 c -1.43723,3.28334 -2.6252,6.91144 -3.2468,9.91571 -0.53911,2.60579 -1.39124,6.40999 -1.89359,8.45376 -2.41993,9.84587 -0.45925,11.36826 8.23332,6.39283 7.36381,-4.21491 11.79443,-8.60444 18.14444,-17.97629 4.04862,-5.97529 7.27082,-8.88063 13.17444,-11.87903 2.7491,-1.39624 4.00025,-2.71891 4.73203,-5.00264 0.97897,-3.05499 5.71529,-9.63992 7.81576,-10.86628 2.35474,-1.37482 9.19189,-3.4104 12.4949,-3.72003 3.42783,-0.32134 15.7816,2.79702 21.65855,5.46709 2.35762,1.07114 6.21555,2.59986 8.57317,3.39716 4.7684,1.61257 8.0059,3.29551 14.63202,7.60615 4.95669,3.2246 8.97133,5.04191 11.13809,5.04191 0.78219,0 2.09839,-0.41793 2.92489,-0.92873 1.75231,-1.083 6.72999,-6.96294 8.38127,-9.90054 6.05555,-10.77264 7.34838,-12.36693 13.61781,-16.79336 2.51921,-1.77863 5.6342,-4.21006 6.92221,-5.40318 1.28805,-1.19313 2.68529,-2.16932 3.10502,-2.16932 0.41968,0 2.51311,-0.99972 4.65198,-2.22159 2.13892,-1.22187 4.99036,-2.65422 6.33657,-3.18299 1.34622,-0.52877 3.21075,-1.56578 4.14342,-2.30446 0.93267,-0.73868 2.7754,-1.72279 4.09504,-2.18692 1.31959,-0.46413 3.61756,-1.39427 5.10659,-2.06698 2.95341,-1.33429 16.36719,-4.29072 19.35048,-4.2649 3.40779,0.0295 10.61959,2.18656 15.40829,4.60864 1.74536,0.88278 4.79222,2.80535 6.77078,4.27236 1.9786,1.46701 4.61151,3.25322 5.85101,3.96933 1.2395,0.71612 2.44128,1.61119 2.67068,1.98905 0.89991,1.48228 6.97459,7.20236 8.4253,7.93348 1.85411,0.9344 4.91983,3.79371 4.91983,4.58857 0,1.15833 2.18084,5.40616 4.01356,7.81763 1.38456,1.82178 2.30298,3.80157 3.45377,7.44513 1.91168,6.05254 2.4818,10.75154 2.76746,22.81041 0.20427,8.6217 0.13975,9.66878 -0.91751,14.89025 -0.62543,3.08903 -1.36674,7.44386 -1.64731,9.6774 -0.84577,6.7328 -1.79834,11.55002 -2.98143,15.07711 -0.61718,1.83997 -1.29063,4.68266 -1.49656,6.31708 -0.42771,3.39452 -2.50508,7.61665 -5.91175,12.01517 -3.04659,3.93365 -3.32382,4.55395 -2.70393,6.05044 0.44147,1.06583 8.31895,9.08574 14.24938,14.50702 7.65219,6.99522 24.64304,26.21846 26.87956,30.41126 0.79433,1.48902 1.82072,3.21494 2.28096,3.83536 4.63809,6.25246 5.58633,7.7713 6.33833,10.15244 1.82229,5.77024 0.69736,11.44995 -2.98329,15.06223 -1.68007,1.64888 -2.45932,2.04698 -5.0805,2.59552 -1.70286,0.35635 -3.92119,1.04675 -4.92962,1.53423 -1.00843,0.48747 -3.25488,1.25948 -4.99207,1.71557 -1.7372,0.45609 -4.08155,1.29022 -5.20969,1.85364 -2.02408,1.01087 -2.10115,1.015 -5.83721,0.31263 -2.08233,-0.39148 -5.28279,-0.92649 -7.11217,-1.18892 -1.82938,-0.26243 -4.87511,-1.07969 -6.76829,-1.81613 -1.89318,-0.73645 -4.01716,-1.33993 -4.71989,-1.34107 -0.70278,-10e-4 -2.45225,-0.69044 -3.88776,-1.53176 -1.43551,-0.84133 -3.09406,-1.68126 -3.68569,-1.86651 -1.01078,-0.31652 -17.26462,-8.6157 -20.70372,-10.57129 -0.8686,-0.49392 -3.01934,-1.6056 -4.77941,-2.47042 -1.76007,-0.86483 -3.47322,-1.90148 -3.80703,-2.30367 -0.33377,-0.4022 -1.63486,-1.25037 -2.89133,-1.88482 -1.25642,-0.63445 -3.15321,-1.74913 -4.21502,-2.47706 -2.27546,-1.55994 -4.01229,-1.71941 -5.88345,-0.54018 -2.66492,1.67944 -7.48539,5.41175 -10.49444,8.12542 -4.27016,3.85097 -9.80978,7.39321 -18.31433,11.71088 -4.70446,2.38839 -8.93577,4.94324 -11.91987,7.19707 -2.54447,1.92183 -6.0046,4.38584 -7.68914,5.47556 -1.68454,1.08973 -4.77828,3.47702 -6.87492,5.30508 -5.37587,4.68725 -7.3098,5.91287 -11.14151,7.06092 -4.64048,1.39038 -6.60757,2.46111 -7.42482,4.04143 -0.62968,1.21773 -0.6295,1.48117 0.005,2.70289 0.38498,0.74451 0.85312,1.35366 1.04029,1.35366 0.18716,0 2.23349,1.72591 4.54739,3.83536 2.3139,2.10946 4.34912,3.83537 4.52275,3.83537 0.17363,0 2.13229,1.83997 4.3526,4.08883 7.36476,7.45936 23.98625,21.51247 38.25273,32.34188 3.21111,2.43749 8.89336,7.53988 13.68338,12.28712 7.95361,7.88249 8.259,8.25366 10.50012,12.76333 2.64351,5.31943 3.02434,7.38633 2.38957,12.97008 -0.55785,4.90675 -2.71905,10.54334 -5.20952,13.58677 -1.03627,1.26639 -2.69636,3.30401 -3.68905,4.52803 -1.91736,2.36421 -5.2258,5.0524 -11.57468,9.40455 -4.46153,3.05841 -3.88451,1.98397 -7.87834,14.66969 -2.3162,7.35689 -2.57507,8.58949 -2.74807,13.08539 -0.16022,4.1642 -0.0592,5.2173 0.62702,6.5399 0.9199,1.773 4.14549,4.3225 13.67773,10.8106 7.10671,4.8372 12.67978,10.0743 14.42781,13.558 0.56032,1.1168 1.30159,2.3531 1.64722,2.7475 0.34563,0.3943 1.04367,2.6196 1.55125,4.9452 0.89206,4.08728 0.89797,4.37928 0.17773,8.75872 -0.45153,2.7457 -1.15399,5.2413 -1.78308,6.3352 -2.33425,4.0587 -11.33592,10.5957 -16.47215,11.9621 -1.11677,0.2971 -4.77165,1.8601 -8.12195,3.4734 -3.35031,1.6132 -9.71115,4.3378 -14.13527,6.0545 -4.42407,1.7168 -8.99267,3.5964 -10.15244,4.1769 -2.1631,1.0828 -7.394,2.9856 -8.20764,2.9856 -0.25034,0 -3.83284,1.224 -7.96119,2.7201 -4.12834,1.4962 -8.94818,2.9327 -10.71073,3.1925 -1.7626,0.2597 -4.72757,0.7838 -6.58885,1.1646 -1.86128,0.3807 -7.44512,0.8691 -12.40854,1.0851 -4.96342,0.2161 -9.83659,0.4857 -10.82927,0.5991 -0.99268,0.1135 -3.73384,-0.067 -6.09147,-0.4014 z m 22.33537,-3.8647 c 4.06296,-0.4694 6.65495,-0.9089 11.73171,-1.9893 6.3557,-1.3525 28.65033,-8.4869 36.09757,-11.5514 2.48171,-1.0212 5.73049,-2.3236 7.21952,-2.8941 1.48902,-0.5705 4.23018,-1.8626 6.09146,-2.8713 1.86128,-1.0087 5.21159,-2.5344 7.44513,-3.3905 11.22382,-4.3017 16.92075,-7.9919 16.92075,-10.9604 0,-1.4387 -0.69569,-2.4237 -1.71176,-2.4237 -0.34582,0 -3.70628,1.5022 -7.46769,3.3383 -6.42685,3.1373 -8.54641,3.8542 -16.79493,5.6811 -1.25692,0.2783 -5.52095,1.7344 -9.47562,3.2357 -3.95467,1.5013 -8.40857,3.0876 -9.89759,3.5252 -1.48903,0.4375 -4.02714,1.3172 -5.64025,1.9547 -1.61311,0.6377 -4.1717,1.4744 -5.68581,1.8595 -1.51407,0.3851 -3.45531,0.9937 -4.3138,1.3524 -0.85854,0.3587 -2.97002,0.9782 -4.69223,1.3766 -1.72222,0.3985 -4.75572,1.2445 -6.74109,1.88 -1.98537,0.6355 -5.53872,1.3505 -7.89634,1.5889 -2.35763,0.2384 -5.80946,0.624 -7.67074,0.857 -6.91512,0.8658 -12.31793,0.9456 -17.14634,0.2536 -13.06529,-1.8728 -18.27503,-3.355 -22.17826,-6.31 -1.0791,-0.817 -3.58639,-2.5704 -5.57176,-3.8965 -1.98536,-1.3261 -4.82805,-3.4632 -6.31707,-4.7493 -1.48903,-1.2859 -4.23018,-3.4714 -6.09147,-4.8564 -1.86128,-1.385 -4.39939,-3.3334 -5.64024,-4.3298 -1.24086,-0.9963 -3.47439,-2.7298 -4.96342,-3.8522 -1.48902,-1.1224 -4.7378,-3.5744 -7.21951,-5.44874 -5.32187,-4.01951 -8.36783,-6.07711 -10.93504,-7.38681 -1.02986,-0.5254 -2.44259,-1.7033 -3.13945,-2.6175 -1.29685,-1.7016 -7.59538,-6.9192 -8.35248,-6.9192 -0.23116,0 -1.16807,-0.611 -2.08207,-1.3578 -0.91394,-0.7467 -4.31979,-3.5386 -7.56853,-6.2043 -3.24878,-2.6655 -8.93415,-7.2754 -12.63415,-10.2441 -3.70005,-2.9687 -8.55476,-7.1488 -10.7883,-9.289 -4.43743,-4.2521 -17.42118,-15.48548 -25.2683,-21.8618 -2.72988,-2.2182 -6.58785,-5.56232 -8.57331,-7.43136 -1.98546,-1.86904 -5.13271,-4.55646 -6.9939,-5.97203 -1.86119,-1.41557 -4.29774,-3.28375 -5.4145,-4.15154 -3.5396,-2.75045 -8.74992,-6.4213 -10.15245,-7.15278 -0.74451,-0.38832 -1.9628,-1.3514 -2.70731,-2.14022 -2.52638,-2.67677 -5.67914,-3.48757 -7.79591,-2.0049 -2.17429,1.52291 -1.27411,3.11689 4.43969,7.86173 1.03997,0.86364 2.09352,2.01497 2.3412,2.55855 0.24767,0.54359 1.56185,1.58473 2.92043,2.31372 1.68359,0.90343 2.78109,1.87983 3.44673,3.06649 0.68333,1.2182 1.43239,1.87175 2.49439,2.17637 1.07291,0.30768 1.69311,0.85492 2.11594,1.86687 0.32899,0.78738 1.13974,1.78647 1.80168,2.22023 0.66198,0.43371 1.81995,1.4906 2.57335,2.34864 0.75336,0.85809 2.11324,1.93939 3.02195,2.40297 0.90867,0.46359 1.94016,1.18991 2.2922,1.61406 0.352,0.42415 1.40216,1.25232 2.33371,1.84035 0.9315,0.58807 1.96975,1.72997 2.30722,2.53761 0.75827,1.81481 5.77218,6.53574 14.06109,13.23954 3.47439,2.8099 6.82469,5.5284 7.44512,6.0412 2.46479,2.0369 8.9152,6.6553 10.88017,7.79 1.14479,0.661 2.6807,1.8844 3.41316,2.7186 0.73247,0.8343 2.43546,2.2547 3.78447,3.1567 1.34897,0.902 3.06184,2.2935 3.80635,3.0924 1.33521,1.4326 6.74479,5.6274 9.52309,7.3845 3.2828,2.0762 5.13406,3.4139 5.97762,4.3193 0.49268,0.5288 1.79752,1.6007 2.89967,2.3821 2.3782,1.686 6.45574,4.9056 10.94208,8.6401 1.78881,1.48901 4.83179,3.92565 6.76216,5.41465 1.93031,1.489 4.34533,3.4502 5.36671,4.3581 2.1123,1.8777 7.85398,5.3698 11.42669,6.9498 1.32415,0.5856 3.26344,1.7816 4.30964,2.6578 1.04615,0.8761 3.01889,2.525 4.38383,3.6642 1.36494,1.1392 3.39542,2.6086 4.51219,3.2654 2.73128,1.6062 9.03252,5.8778 10.15245,6.8824 0.49634,0.4452 2.0192,1.2272 3.38414,1.7377 1.36494,0.5105 3.59848,1.8553 4.96342,2.9886 3.02313,2.5099 11.71159,6.8133 16.0183,7.9339 2.68232,0.6979 4.41712,0.7899 11.5061,0.6102 4.59116,-0.1164 10.175,-0.4228 12.40854,-0.6808 z m -8.57317,-11.2684 c 0.99268,-0.2389 4.24146,-0.6517 7.21951,-0.9172 5.49207,-0.4895 13.7456,-2.4957 19.40245,-4.7162 1.5179,-0.5957 4.52144,-1.2488 6.83665,-1.4865 3.30365,-0.3392 4.79313,-0.7519 7.4491,-2.0643 1.8259,-0.9022 3.58453,-1.6403 3.90805,-1.6403 0.89712,0 6.34275,-1.8403 8.87938,-3.0007 1.24085,-0.5676 3.98201,-1.5194 6.09146,-2.1151 7.20995,-2.0359 13.64046,-4.7537 15.20565,-6.4267 0.92428,-0.9879 1.86395,-1.5429 2.61252,-1.5429 1.19614,0 3.4197,-1.0648 5.9269,-2.8382 0.77538,-0.5484 2.32275,-1.5347 3.43866,-2.1917 2.66788,-1.5706 4.4909,-4.02704 4.92222,-6.63215 0.19123,-1.1551 0.47757,-2.7437 0.63628,-3.5302 0.7219,-3.5776 -5.27649,-10.5325 -12.00751,-13.9222 -1.69844,-0.8553 -4.36812,-2.7035 -5.93273,-4.107 -4.29525,-3.8531 -7.57607,-5.1014 -9.04172,-3.4402 -1.33502,1.5132 -3.95548,7.3204 -3.96532,8.7875 -0.005,0.8128 -0.41151,2.3629 -0.90244,3.4447 -0.49088,1.0819 -0.89251,2.4382 -0.89251,3.0141 0,1.1414 -4.45629,10.1802 -5.69245,11.5462 -0.44463,0.49131 -1.37054,0.84471 -2.21296,0.84471 -3.73854,0 -5.11728,-3.79401 -4.47163,-12.30501 0.21144,-2.7868 0.31571,-5.9806 0.23174,-7.0974 -0.30615,-4.0728 -0.17101,-7.1088 0.56091,-12.6005 0.95117,-7.1363 0.66645,-8.4119 -2.58463,-11.5796 -1.29599,-1.2628 -3.56211,-2.8456 -5.03574,-3.5173 -1.47369,-0.6717 -3.18701,-1.4892 -3.80744,-1.8167 -0.62043,-0.3274 -2.29671,-0.9556 -3.72504,-1.3959 -4.07894,-1.2573 -5.30527,-1.006 -17.48228,3.5821 -5.78613,2.1801 -6.46138,2.5671 -6.96174,3.9898 -0.46466,1.3212 -0.16244,2.4614 2.41886,9.1247 0.7691,1.9853 1.71377,4.828 2.09925,6.3171 0.62201,2.4028 1.67082,4.9615 5.36365,13.0853 0.56402,1.2409 1.48501,3.3729 2.04664,4.7378 0.56159,1.365 1.59059,3.7 2.28665,5.1891 1.39386,2.9818 2.91736,10.02195 2.51532,11.62375 -0.29063,1.1579 -4.90616,4.3945 -6.26685,4.3945 -1.22281,0 -5.51098,-4.679 -8.18572,-8.9318 -0.67037,-1.06594 -1.92124,-2.85824 -2.77964,-3.98285 -0.85845,-1.1246 -1.56082,-2.2404 -1.56082,-2.4797 0,-0.2391 -0.38042,-0.9851 -0.84536,-1.6575 -1.22389,-1.77 -7.8815,-13.0695 -9.02087,-15.3106 -0.53271,-1.0478 -1.55269,-2.5707 -2.26661,-3.3842 -0.71397,-0.8134 -1.63409,-2.2835 -2.04475,-3.2668 -0.93926,-2.2491 -8.07963,-11.7551 -9.15881,-12.1933 -1.8977,-0.7703 -3.79395,-1.2286 -8.29604,-2.0049 -2.63165,-0.4538 -5.98195,-1.3349 -7.44512,-1.958 -1.46313,-0.6231 -3.49398,-1.3578 -4.51301,-1.6327 -1.01899,-0.275 -2.64338,-1.0391 -3.60976,-1.6981 -0.96633,-0.6591 -3.68597,-2.3125 -6.04359,-3.6742 -2.35762,-1.3617 -6.01038,-3.6986 -8.11722,-5.19326 -2.10688,-1.49462 -4.74651,-3.1181 -5.86585,-3.60772 -2.1354,-0.93407 -8.10327,-4.92389 -10.89086,-7.28111 -0.89987,-0.76094 -3.6806,-3.08612 -6.17941,-5.1671 -2.49881,-2.08093 -4.64071,-4.03742 -4.75978,-4.34772 -0.4713,-1.22822 -16.28583,-14.43596 -21.49178,-17.94916 -1.86128,-1.2561 -5.00853,-3.62952 -6.9939,-5.27431 -1.98537,-1.64483 -4.60163,-3.66719 -5.81388,-4.49423 -1.21229,-0.82704 -3.7504,-2.91339 -5.64024,-4.63638 -4.92804,-4.49279 -8.33254,-6.66708 -10.43937,-6.66708 -0.95325,0 -3.07931,0.62223 -4.79918,1.4046 -1.6983,0.77249 -5.32136,2.17926 -8.05124,3.12609 -8.92969,3.09727 -13.30782,4.88771 -15.97043,6.53114 -2.93329,1.81052 -10.38653,4.46098 -13.77709,4.8993 -2.30198,0.29758 -3.86835,1.28669 -3.86835,2.44276 0,1.51493 2.13211,3.88009 7.12499,7.90375 2.90594,2.34187 6.15359,5.29366 7.21698,6.55951 1.74036,2.07178 5.92691,5.72079 15.84909,13.81418 1.83891,1.49999 4.07244,3.34801 4.96342,4.10678 0.89098,0.75872 4.66566,3.71318 8.38822,6.56543 10.88238,8.33813 23.17947,17.95723 27.07318,21.17713 1.98536,1.6418 5.64024,4.478 8.12195,6.3026 2.48171,1.8247 6.60144,5.4462 9.15489,8.0478 3.81461,3.8865 4.94126,4.7787 6.3164,5.0022 1.26553,0.2057 1.83894,0.6004 2.35121,1.6182 0.37262,0.7404 1.28665,1.9825 2.03117,2.7604 1.40676,1.4697 8.36764,6.7603 13.11628,9.9689 3.23989,2.1892 4.38572,3.11571 8.04691,6.50665 1.5133,1.4017 4.57889,3.8759 6.81243,5.4984 2.23353,1.6225 4.754,3.5215 5.60103,4.22 0.84703,0.6984 2.16685,1.6496 2.93293,2.1138 0.76608,0.4642 2.32996,1.6825 3.47529,2.7073 3.4891,3.1221 11.53092,8.5117 16.41759,11.003 3.0835,1.572 7.77934,2.7983 12.63415,3.2992 2.23353,0.2305 4.36555,0.4975 4.7378,0.5933 1.34527,0.3463 5.22815,0.2479 6.99391,-0.1771 z m -254.53444,-21.4632 c 3.65753,-1.2514 9.71727,-5.0039 13.60101,-8.4225 2.4984,-2.19924 5.5958,-6.65435 6.16641,-8.86935 0.23013,-0.8934 0.59268,-2.3351 0.80566,-3.2037 0.21302,-0.8686 1.23115,-3.8038 2.26259,-6.5227 1.71847,-4.5301 1.8722,-5.2848 1.83809,-9.0244 -0.0705,-7.7403 -0.95537,-10.8895 -4.74895,-16.9017 -2.97977,-4.7225 -6.7317,-8.7261 -10.3415,-11.0353 -4.441,-2.84086 -14.7133,-7.88739 -17.17743,-8.43883 -2.06573,-0.46227 -3.07042,-0.40167 -7.38014,0.44527 -2.74388,0.5392 -7.14998,1.7649 -9.79134,2.72369 -3.91335,1.42058 -5.59067,2.34359 -9.05976,4.98557 -5.03018,3.8308 -7.69079,6.7692 -8.36746,9.2413 -0.27039,0.9878 -1.293,3.2561 -2.27246,5.0408 -0.97946,1.7846 -1.98918,3.9206 -2.24383,4.7466 -0.25464,0.8261 -0.52708,5.1181 -0.60543,9.538 -0.12881,7.2679 -0.0426,8.3987 0.90144,11.8301 0.57413,2.0868 1.68223,4.9918 2.46246,6.4557 1.56675,2.9395 7.49995,9.98435 10.02914,11.90815 2.39175,1.8192 5.75202,3.5078 6.98037,3.5078 0.59351,0 1.64665,0.4196 2.34032,0.9325 3.84075,2.8396 17.66252,3.4368 24.60081,1.063 z m -10.55709,-20.94675 c -0.62043,-0.1987 -2.16359,-0.3815 -3.42925,-0.4062 -3.28351,-0.064 -5.33629,-1.6891 -8.118,-6.4258 l -2.21495,-3.7716 0.0346,-5.1891 c 0.0549,-8.2339 1.64455,-10.9499 8.85483,-15.1294 4.3829,-2.5405 4.8145,-2.6937 7.59038,-2.6937 2.57559,0 3.25197,0.1941 5.41464,1.5543 5.8701,3.6918 8.31427,6.5024 8.17787,9.4038 -0.0433,0.9218 0.14628,4.3369 0.42135,7.5891 0.48172,5.6955 0.46403,5.9838 -0.48019,7.8346 -1.55693,3.0519 -4.55926,5.6585 -7.76389,6.7408 -2.81892,0.9519 -6.40445,1.1603 -8.48741,0.4932 z m 7.49757,-5.435 c 0.66531,-0.6092 2.21611,-3.2246 3.44625,-5.8119 2.08414,-4.3837 2.22428,-4.8976 2.05607,-7.539 -0.15951,-2.505 -0.43484,-3.2069 -2.36766,-6.0357 -2.49072,-3.6453 -4.61218,-5.0201 -7.88696,-5.1111 -1.75211,-0.049 -2.655,0.3008 -5.90381,2.285 -4.35755,2.6614 -6.18588,4.2317 -6.79626,5.8372 -0.23279,0.6122 -0.42325,2.8459 -0.42325,4.9638 0,5.9879 1.2182,7.7871 7.45886,11.0165 3.30197,1.7087 3.82296,1.8456 6.40083,1.6814 2.19404,-0.1397 3.07019,-0.4203 4.01593,-1.2862 z m 278.48543,21.58875 c 0.2978,-0.2978 0.54146,-1.3919 0.54146,-2.4312 0,-2.39984 -1.95798,-9.20365 -3.34877,-11.63675 -0.58483,-1.0231 -1.31932,-2.6724 -1.63224,-3.665 -0.31297,-0.9927 -2.1511,-4.8507 -4.08476,-8.5732 -1.93366,-3.7226 -4.15808,-8.5508 -4.94311,-10.7294 -1.01308,-2.8115 -1.94764,-4.514 -3.22022,-5.8659 -0.9861,-1.0476 -2.08364,-2.4571 -2.43902,-3.1322 -0.9588,-1.8215 -2.17831,-2.2898 -5.09084,-1.955 -3.36114,0.3864 -4.77774,0.9814 -5.48562,2.3041 -0.53329,0.9964 -0.3343,1.5795 2.26089,6.6257 1.56505,3.0432 3.42462,6.3808 4.13236,7.4167 0.70769,1.036 1.47228,2.3716 1.69906,2.9681 0.22679,0.5965 1.42031,2.4162 2.65223,4.0438 1.23192,1.6276 2.58806,3.9469 3.0136,5.1539 0.42559,1.207 0.99927,2.6007 1.27492,3.097 0.27561,0.4964 1.08248,1.9637 1.79302,3.2608 0.71053,1.297 1.76756,2.7324 2.34895,3.1897 0.58136,0.4574 2.02603,2.4016 3.2103,4.32071 3.16986,5.13644 5.78517,7.14074 7.31779,5.60814 z m 34.02936,-15.25665 c 0.73774,-1.4994 2.46411,-7.2794 3.77188,-12.6288 0.33372,-1.3649 0.98831,-5.1213 1.45464,-8.3475 0.59263,-4.0999 1.90848,-9.4659 4.37042,-17.8232 4.80825,-16.32199 4.79913,-18.89083 -0.0653,-18.36985 -2.42196,0.25936 -5.88769,1.94196 -6.56055,3.18511 -0.94932,1.75394 -1.66721,7.19181 -1.69135,12.81224 -0.0176,4.1417 -0.41327,7.8151 -1.58044,14.6801 -0.85624,5.036 -1.6794,10.5706 -1.82934,12.2993 -0.14989,1.7287 -0.58478,4.9657 -0.96633,7.1933 -0.95072,5.5504 -0.30178,9.0754 1.60354,8.7108 0.39509,-0.076 1.06687,-0.8458 1.49282,-1.7115 z m -454.92,-20.6849 c 4.18099,-2.2248 4.63277,-7.454 1.50653,-17.4378 -1.04632,-3.3415 -2.70867,-7.4193 -3.86279,-9.47561 -2.37847,-4.23772 -2.88561,-5.19841 -5.12129,-9.70122 -4.87166,-9.81186 -9.79958,-17.91753 -14.12137,-23.22739 -1.64977,-2.02692 -4.22676,-5.19354 -5.72664,-7.0369 -1.49988,-1.84337 -3.72734,-4.77292 -4.94991,-6.51011 -1.22257,-1.7372 -3.3457,-4.37683 -4.71807,-5.86586 -4.64308,-5.03777 -8.39748,-10.65605 -11.69395,-17.49956 -1.76717,-3.66864 -3.53053,-6.79207 -3.91858,-6.94098 -1.50935,-0.57923 -1.71771,0.58433 -0.75699,4.22703 0.51037,1.9351 1.6581,6.29104 2.55051,9.67988 1.03572,3.93301 1.62461,7.19691 1.62819,9.02439 0.004,1.86855 0.56414,4.9002 1.61372,8.72876 0.88445,3.22622 1.92463,7.18567 2.31151,8.79878 0.38688,1.61311 1.2851,4.87137 1.99604,7.24063 0.71094,2.36922 1.29263,4.5372 1.29263,4.81772 0,0.28052 0.98247,3.62135 2.18328,7.42401 2.10787,6.67516 4.63768,12.64836 6.29764,14.86953 1.40139,1.87523 4.15323,6.6009 4.15323,7.1323 0,0.2821 0.86295,1.3838 1.91768,2.4482 1.05473,1.0644 2.62835,3.2183 3.49695,4.7864 0.8686,1.5682 2.42913,3.6618 3.46785,4.6525 1.03871,0.9907 2.12486,2.3717 2.41365,3.0689 0.48218,1.1641 1.9676,2.3257 7.04312,5.5077 3.55482,2.2286 8.20627,2.7737 10.99706,1.2887 z m 392.85325,-16.3377 c 0.69325,-0.2636 4.00602,-1.264 7.36169,-2.2231 13.87446,-3.9657 19.58194,-6.0039 25.28603,-9.02975 0.87293,-0.46304 4.02019,-1.64262 6.99391,-2.62123 2.97372,-0.9786 8.1479,-2.84395 11.4982,-4.14513 3.35031,-1.30122 7.81738,-3.03558 9.92684,-3.85409 2.10945,-0.81856 6.21776,-2.22578 9.12952,-3.12718 3.09244,-0.95731 5.85169,-2.10801 6.63474,-2.76688 0.73729,-0.62042 2.1113,-1.37161 3.0534,-1.66942 0.94206,-0.29776 3.57145,-1.51632 5.84311,-2.7079 4.74241,-2.48758 8.89341,-6.3756 8.64736,-8.09953 -0.21645,-1.51628 -1.31603,-1.45379 -5.30901,0.30182 -2.60881,1.14704 -4.81419,1.74062 -7.80826,2.10155 -2.3888,0.28802 -5.61927,1.0564 -7.55671,1.79739 -1.86128,0.71189 -6.02379,2.0942 -9.25001,3.07177 -3.22622,0.97761 -6.67805,2.12588 -7.67073,2.55178 -0.99268,0.42586 -3.83537,1.36436 -6.31708,2.0855 -8.88487,2.58187 -13.16577,4.09734 -23.46342,8.30623 -3.47439,1.42008 -7.12927,2.873 -8.12195,3.22874 -0.99268,0.35575 -2.77487,1.2664 -3.96045,2.02368 -1.69112,1.08026 -3.58688,1.66139 -8.79878,2.69712 -7.38209,1.46705 -8.60945,1.47883 -20.63103,0.19772 -10.36654,-1.10472 -11.99766,-1.68819 -19.20264,-6.869 -3.31015,-2.38023 -7.49557,-5.61597 -9.30095,-7.1905 -1.80537,-1.57458 -4.45566,-3.71223 -5.88945,-4.7504 -1.43384,-1.03812 -4.12984,-3.35247 -5.99112,-5.14296 -3.75843,-3.61553 -11.85214,-10.01193 -16.0183,-12.65914 -1.48902,-0.94617 -4.7378,-3.77464 -7.21951,-6.28549 -2.96532,-3.00021 -6.60044,-6.02166 -10.60366,-8.81377 -9.56008,-6.66771 -27.7224,-20.91849 -30.64206,-24.04283 -1.10855,-1.18626 -3.04334,-2.78452 -4.29953,-3.55168 -1.25625,-0.76717 -3.29928,-2.24333 -4.54013,-3.28033 -3.86262,-3.22807 -14.27474,-11.27774 -22.78659,-17.61643 -2.85397,-2.12532 -6.01602,-4.5214 -7.02685,-5.32461 -1.01082,-0.8032 -3.75198,-2.91252 -6.09146,-4.68736 -2.33949,-1.77483 -5.06585,-4.08543 -6.05853,-5.13466 -0.99268,-1.04923 -4.04816,-3.58006 -6.78995,-5.62407 -2.74184,-2.044 -6.19367,-4.81841 -7.67074,-6.16535 -1.47711,-1.34693 -4.31005,-3.65684 -6.29541,-5.13311 -1.98537,-1.47628 -5.68357,-4.35189 -8.21825,-6.39024 -2.53468,-2.03836 -5.22508,-4.02495 -5.97866,-4.41463 -0.75358,-0.38969 -1.37017,-0.89922 -1.37017,-1.13229 0,-0.74811 -1.98108,-1.51925 -3.65542,-1.42286 -1.04597,0.0602 -1.84332,-0.16961 -2.23792,-0.64504 -0.33715,-0.40623 -1.83944,-1.56597 -3.33848,-2.57721 -1.499,-1.01123 -4.75599,-3.58769 -7.2377,-5.72547 -6.6244,-5.70636 -15.13896,-12.5592 -19.35651,-15.57884 -2.08725,-1.4944 -6.04753,-4.71265 -12.22884,-9.93749 -2.23354,-1.88793 -5.11804,-4.13489 -6.41001,-4.99324 -1.29196,-0.85835 -2.46019,-1.74051 -2.59606,-1.96036 -0.13588,-0.21985 -2.02302,-1.5698 -4.19366,-2.9999 -6.39987,-4.21648 -11.39292,-7.84689 -14.9796,-10.89154 -1.84924,-1.56977 -4.28582,-3.39527 -5.41464,-4.05665 -1.12881,-0.6614 -3.95458,-2.63644 -6.27949,-4.389 -2.32492,-1.75255 -5.06608,-3.77665 -6.09147,-4.498 -4.49115,-3.15943 -14.83018,-11.11861 -18.49527,-14.238 -2.19823,-1.87093 -4.73634,-3.96262 -5.64025,-4.6482 -0.90391,-0.68557 -2.04958,-1.7237 -2.54592,-2.30695 -1.25636,-1.47633 -9.99382,-8.83348 -12.18293,-10.25832 -0.99268,-0.64612 -3.42927,-2.65498 -5.41463,-4.46413 -1.98537,-1.80917 -5.4372,-4.6857 -7.67074,-6.39229 -2.23353,-1.7066 -5.27927,-4.12852 -6.76829,-5.38205 -1.48903,-1.25353 -5.11299,-4.24375 -8.05325,-6.64494 -2.94026,-2.40119 -6.7288,-5.5268 -8.41898,-6.94581 -7.93798,-6.66443 -16.61453,-13.40379 -20.78654,-16.1456 -9.72378,-6.3904 -17.48696,-12.02585 -25.23515,-18.31873 -1.36494,-1.10857 -4.1061,-3.09475 -6.09147,-4.41375 -4.91746,-3.26696 -11.40585,-8.34893 -14.05476,-11.00825 -2.51736,-2.52725 -6.98834,-5.9666 -7.75629,-5.9666 -0.28695,0 -1.283736,-0.6874 -2.215096,-1.52755 -0.93135,-0.84015 -3.52081,-2.87881 -5.754353,-4.53036 -12.70635,-9.39545 -17.18136,-13.30065 -22.53052,-19.66161 -4.41004,-5.2442 -12.33675,-13.04252 -13.57255,-13.35268 -0.64723,-0.16245 -1.26446,-0.89364 -1.70846,-2.024 -0.49846,-1.26891 -0.96078,-1.76967 -1.63391,-1.76967 -0.83539,0 -0.93872,0.26928 -0.93872,2.44662 0,3.65966 2.70813,8.63099 7.58487,13.92351 4.90435,5.32252 13.20589,13.11265 18.18704,17.06661 2.13827,1.69733 4.25685,3.65029 4.70796,4.33991 1.94883,2.97924 11.35478,11.61977 17.964569,16.50267 7.20717,5.3242 13.19225,10.03596 17.31247,13.62924 7.76815,6.77468 28.08259,22.27578 33.5682,25.61451 5.30937,3.23146 10.95202,7.2855 16.91842,12.15529 3.44443,2.81135 7.4809,6.0498 8.96993,7.19655 1.48902,1.14675 5.77873,4.72018 9.53268,7.94095 3.83512,3.29041 7.94444,6.40346 9.37969,7.10567 1.40489,0.68734 2.76033,1.63463 3.0121,2.10507 0.25178,0.47045 3.64525,3.22116 7.54105,6.11271 3.8958,2.89153 8.09851,6.26279 9.33937,7.49168 1.24085,1.22888 3.67744,3.36947 5.41463,4.75684 1.7372,1.38739 4.57988,3.96838 6.31708,5.73553 3.40391,3.46261 6.35469,5.93192 9.92683,8.30709 1.24086,0.82506 2.71215,2.0584 3.26954,2.74077 0.5574,0.68236 2.09794,1.8527 3.42342,2.60076 1.32549,0.74806 3.29176,2.41329 4.36948,3.70051 1.07772,1.28723 3.49663,3.42391 5.37536,4.74819 1.87873,1.32428 5.24331,3.95551 7.47684,5.84717 2.23354,1.89166 5.17775,4.07419 6.54269,4.85005 1.36494,0.77587 3.80152,2.65492 5.41463,4.17566 1.61311,1.52075 4.0497,3.55489 5.41464,4.52032 1.36494,0.96543 3.49695,2.58558 4.73781,3.60033 1.24085,1.01476 3.15932,2.42373 4.26326,3.13105 1.10394,0.70733 2.93138,2.12959 4.06098,3.16059 1.12959,1.031 2.56143,2.22161 3.18186,2.64579 1.3938,0.95293 3.61516,2.6982 9.07771,7.13211 2.32829,1.88987 5.04544,3.84813 6.03813,4.35168 0.99268,0.50356 3.39669,2.05797 5.34221,3.45425 1.94553,1.39629 4.17906,2.87046 4.96342,3.27595 2.19081,1.13255 4.835,3.3983 5.52672,4.73572 0.65539,1.26716 6.65544,6.45695 13.49692,11.6743 2.23354,1.7033 5.30274,4.07088 6.82037,5.26128 1.51767,1.1904 4.46188,3.46883 6.54268,5.06317 2.08085,1.59434 4.62925,3.66407 5.66313,4.5994 1.03392,0.93532 3.16593,2.34729 4.7378,3.13772 1.57192,0.79042 5.70067,3.70433 9.17506,6.47534 3.47439,2.77102 7.23079,5.73105 8.34756,6.57785 1.11677,0.8468 4.57604,4.08666 7.68729,7.19967 3.11121,3.11301 6.76609,6.42569 8.12196,7.36156 1.35582,0.93583 4.32692,2.96632 6.60242,4.5122 2.27551,1.54583 5.90223,4.33351 8.05942,6.19479 2.15714,1.86128 5.06702,4.24088 6.46638,5.28798 1.39937,1.0471 3.80581,2.95607 5.34772,4.24214 1.54191,1.28611 5.09527,3.89349 7.89635,5.79416 10.6875,7.25214 12.9075,8.86719 17.72702,12.89617 2.72988,2.28214 6.18951,4.93995 7.6881,5.90633 4.36596,2.81534 17.61945,14.3348 23.12479,20.09913 2.09501,2.19356 5.09589,4.68623 7.54078,6.2637 4.72788,3.05051 12.47505,8.57588 17.16137,12.23973 3.23579,2.52981 10.42047,6.48038 14.22944,7.82438 1.07507,0.3792 2.26927,0.9564 2.65389,1.2825 1.59186,1.3499 9.29914,3.8446 12.65654,4.0966 1.86128,0.1397 4.39939,0.4291 5.64024,0.643 3.29061,0.5674 8.9957,0.5839 10.45165,0.03 z m 57.21108,-3.4109 c 1.18658,-0.4553 2.01799,-2.5941 2.3352,-6.00716 0.35276,-3.79543 -0.3237,-4.99301 -2.82035,-4.99301 -3.101,0 -7.73814,2.18029 -8.78087,4.12866 -0.41368,0.77293 -0.22556,1.15471 1.26996,2.57741 2.05359,1.9535 5.89415,4.5744 6.70309,4.5744 0.30941,0 0.89125,-0.1261 1.29297,-0.2803 z M 273.18587,935.50598 c 2.03274,-1.28909 4.12309,-2.05337 9.1999,-3.36348 6.05947,-1.56375 7.82195,-1.78819 11.57671,-1.47414 4.82854,0.40389 6.58469,0.87573 8.4893,2.28092 2.95109,2.17722 4.39558,1.27912 5.42707,-3.37436 0.85948,-3.87742 3.99325,-12.4736 6.08623,-16.69513 1.04583,-2.10945 2.35342,-4.98281 2.90576,-6.3852 2.24532,-5.70116 0.20932,-6.7405 -6.84162,-3.49253 -4.46062,2.05476 -6.80588,2.45021 -17.03979,2.87336 -6.07388,0.25111 -9.47021,0.59543 -13.8495,1.40411 -8.92063,1.64722 -14.86949,1.99285 -23.15051,1.34517 -4.84506,-0.37893 -6.02754,0.11804 -6.2343,2.62024 -0.19791,2.39498 1.76618,6.24303 4.67125,9.15199 1.27876,1.28043 3.01001,3.20939 3.84725,4.28659 0.83723,1.07715 2.46037,3.07524 3.60697,4.44018 1.14661,1.36494 2.55121,3.26088 3.12134,4.21318 2.30048,3.84254 4.58886,4.44907 8.18394,2.1691 z m 278.55085,0.77348 c 7.49683,-1.41187 14.41159,-3.58774 21.6857,-6.82389 4.28709,-1.90726 10.26273,-3.92349 11.66209,-3.93486 0.45804,-0.005 1.37176,-0.30493 2.03049,-0.66938 1.99349,-1.10292 8.34973,-3.39408 9.42214,-3.39629 1.32497,-0.005 6.8761,-2.10444 7.82393,-2.96221 0.40939,-0.37054 1.36209,-0.62665 2.11707,-0.56912 0.75499,0.0575 1.64673,-0.11362 1.98167,-0.38038 0.33494,-0.26672 1.42116,-0.73635 2.41385,-1.04363 0.99268,-0.30723 2.91424,-1.17208 4.27011,-1.92188 1.35587,-0.74979 4.19856,-1.73002 6.31708,-2.1783 7.39576,-1.56492 20.03397,-6.16542 24.24529,-8.82568 3.64599,-2.30311 3.89639,-2.91118 3.64974,-8.86268 -0.22588,-5.44996 -0.80182,-7.42495 -2.94529,-10.10028 -3.09532,-3.86334 -5.49631,-6.26906 -7.86232,-7.87775 -3.18295,-2.16414 -13.10063,-10.49505 -21.09317,-17.71849 -3.32896,-3.00865 -8.20213,-7.26811 -10.82927,-9.46551 -2.62709,-2.19739 -5.99486,-5.15036 -7.48388,-6.56212 -1.48903,-1.41176 -3.41799,-3.05925 -4.28659,-3.66109 -0.8686,-0.60184 -4.21891,-3.44754 -7.44513,-6.32379 -3.22622,-2.87625 -6.70318,-5.82692 -7.72659,-6.55705 -4.68285,-3.34089 -11.43932,-8.7384 -14.34928,-11.46314 -3.2838,-3.07478 -7.41345,-6.38128 -11.23321,-8.99404 -1.19618,-0.81823 -3.42972,-2.61106 -4.96341,-3.98409 -1.53365,-1.37302 -4.14211,-3.39112 -5.79651,-4.48467 -1.65435,-1.09355 -4.39551,-3.26226 -6.09146,-4.81935 -1.69591,-1.55709 -4.72043,-4.0681 -6.72119,-5.58003 -2.00075,-1.51193 -4.74191,-3.74201 -6.09147,-4.95574 -2.16314,-1.94544 -4.39208,-3.61785 -14.12489,-10.5982 -1.27415,-0.91382 -3.43342,-2.58228 -4.79836,-3.70769 -5.23802,-4.31882 -13.80854,-10.98023 -14.81602,-11.51572 -0.57964,-0.30806 -2.6913,-2.01578 -4.69264,-3.79492 -5.99125,-5.32615 -18.25792,-15.18757 -20.87549,-16.78223 -0.74452,-0.45357 -2.29482,-1.72286 -3.44516,-2.82064 -1.15029,-1.09778 -3.317,-2.83875 -4.81483,-3.86884 -3.91112,-2.68965 -11.11949,-8.22156 -13.70241,-10.51554 -1.94494,-1.72737 -10.81966,-6.47319 -12.10496,-6.47319 -0.26216,0 -1.63842,-0.58632 -3.05832,-1.30292 -4.75067,-2.39762 -6.765,-2.75806 -15.41348,-2.75806 -4.58742,0 -8.59465,0.21203 -9.50652,0.50299 -1.39937,0.44654 -15.07209,1.32093 -22.3324,1.42819 -4.82182,0.0712 -19.19831,-1.46211 -24.13037,-2.57366 -1.61852,-0.36478 -4.5672,-1.01829 -6.55257,-1.45225 -3.58656,-0.78397 -9.27743,-3.4173 -13.19406,-6.1053 -2.59483,-1.78083 -6.41346,-3.51837 -7.78765,-3.54346 -0.79739,-0.0146 -2.46731,-1.3054 -5.69714,-4.4038 -6.03376,-5.78819 -8.80185,-9.46207 -11.3632,-15.0814 l -2.11649,-4.64327 0.12747,-9.02439 c 0.12683,-8.97916 0.82839,-15.40992 2.16594,-19.85367 1.79969,-5.97933 2.47684,-13.53617 1.47982,-16.51499 -0.86377,-2.58072 -4.56124,-8.50123 -6.70616,-10.73808 -1.11677,-1.16465 -4.87315,-4.08043 -8.34755,-6.47951 -3.47439,-2.39909 -8.75366,-6.09594 -11.73171,-8.21522 -2.97805,-2.11929 -6.23854,-4.23489 -7.24554,-4.70133 -1.007,-0.46644 -2.14839,-1.3289 -2.53641,-1.91656 -0.38802,-0.58765 -3.52356,-2.88011 -6.96787,-5.09435 -6.32249,-4.06453 -24.16414,-15.92773 -28.06526,-18.66105 -1.16146,-0.81378 -2.92396,-2.03395 -3.91664,-2.71149 -0.99268,-0.67754 -2.92165,-2.31627 -4.28659,-3.64162 -1.36493,-1.32535 -4.10609,-3.54396 -6.09146,-4.93025 -1.98537,-1.38628 -5.06819,-3.89057 -6.85072,-5.56508 -3.43662,-3.22839 -12.68329,-9.61789 -16.85217,-11.64495 -1.37255,-0.66739 -3.09847,-1.62785 -3.83536,-2.13436 -2.3831,-1.63804 -8.88101,-5.38702 -14.19957,-8.19248 -6.53524,-3.44723 -11.64734,-5.49896 -13.70127,-5.49896 -0.87649,0 -3.23184,-0.51751 -5.23413,-1.15004 -3.3765,-1.06663 -4.139,-1.13778 -10.51415,-0.98107 -7.42722,0.18258 -24.26397,1.015 -33.14308,1.63862 -4.49205,0.3155 -6.58168,0.72523 -11.2805,2.21185 -3.17193,1.00354 -7.89915,2.35643 -10.50494,3.00643 -13.650769,3.4051 -28.288899,9.90832 -37.902459,16.83875 -4.92885,3.55323 -6.45568,5.84482 -6.69303,10.04544 -0.20805,3.68173 0.52608,5.29509 4.30044,9.45101 1.46498,1.61311 3.90671,4.65884 5.42596,6.7683 2.78268,3.86357 6.21185,7.42228 10.163,10.54689 2.19138,1.73295 4.69952,4.08768 11.85016,11.12532 2.8063,2.76196 4.83198,4.34075 6.542683,5.09928 1.36283,0.60429 2.88398,1.55655 3.38032,2.11613 0.49634,0.55958 1.563346,1.29712 2.371126,1.63896 0.80779,0.34185 2.05319,1.42841 2.76756,2.41458 0.71438,0.98617 2.31744,2.47848 3.56235,3.31624 4.86036,3.27079 11.22979,8.13925 18.18429,13.89913 1.096,0.90774 3.10949,2.15389 4.47443,2.76923 1.36494,0.61535 3.70001,2.14412 5.18903,3.39727 1.48902,1.25316 5.34695,4.06796 8.57317,6.25511 3.22622,2.18715 7.77215,5.49953 10.10206,7.36084 2.32991,1.86132 6.0034,4.70403 8.16331,6.31714 3.59226,2.68284 5.73819,4.35866 17.53607,13.69442 2.14824,1.69992 5.42876,4.44883 7.29004,6.10869 1.86128,1.65985 6.02378,5.22179 9.25,7.9154 3.22622,2.69363 7.08415,6.06207 8.57318,7.48544 1.48902,1.42336 3.82408,3.29036 5.18902,4.14889 1.36494,0.85852 3.21814,2.25398 4.11822,3.10101 3.18867,3.00074 7.57017,6.83902 8.59998,7.53376 0.5742,0.38737 1.99978,1.58307 3.16797,2.65713 1.16818,1.07406 2.43334,1.95283 2.81147,1.95283 0.37813,0 2.80495,1.95119 5.39293,4.33597 2.58798,2.38478 7.55117,6.29347 11.0293,8.68598 7.9679,5.48088 16.4091,11.68142 23.08747,16.95906 2.85396,2.25537 6.71189,5.10172 8.57317,6.32523 1.86128,1.2235 4.70397,3.26423 6.31708,4.53496 1.61311,1.27072 4.19098,3.15993 5.7286,4.19824 1.53763,1.03831 5.80165,4.14518 9.47562,6.90415 3.67396,2.75898 8.49404,6.15995 10.71129,7.55772 2.21725,1.39777 5.46603,4.0007 7.21951,5.78429 1.75349,1.78359 3.76123,3.45931 4.46166,3.72382 0.70048,0.2645 3.69463,2.35855 6.65373,4.65345 2.95906,2.29489 6.65003,5.14456 8.20209,6.33261 1.55206,1.18805 4.17599,3.29965 5.83098,4.69243 1.65498,1.39279 4.63989,3.56801 6.63306,4.83382 4.02844,2.55833 11.31812,8.00716 14.61334,10.92301 1.18012,1.04428 3.2106,2.5081 4.51219,3.25295 1.30155,0.74484 4.19391,3.14944 6.42745,5.34355 2.23353,2.19411 4.58904,4.39539 5.23441,4.89173 0.64534,0.49634 3.18345,2.41228 5.64025,4.25765 2.45676,1.84537 5.56462,4.34681 6.90637,5.55876 1.3417,1.21194 3.47371,2.86628 4.7378,3.67631 4.1015,2.62834 21.17989,15.63057 23.73118,18.0672 1.36494,1.30362 3.7,3.2935 5.18903,4.42205 1.48902,1.12854 3.31646,2.6991 4.06097,3.49014 0.74452,0.79103 4.70397,3.76524 8.79879,6.60933 10.97555,7.62308 21.32707,14.89146 22.19089,15.58147 0.41688,0.33295 2.65042,2.19649 4.96342,4.14116 6.85068,5.75981 10.82494,9.04068 12.11439,10.00083 5.79235,4.31316 8.57872,6.50983 9.98887,7.87477 0.90966,0.88047 2.5008,2.20999 3.53594,2.9545 1.03514,0.74451 2.79711,2.42337 3.9155,3.73082 1.11839,1.30745 3.79119,3.74404 5.93954,5.41464 2.14835,1.67059 5.46468,4.29015 7.36964,5.82123 4.53697,3.64644 9.54993,7.00392 12.20156,8.17199 1.17051,0.51565 3.04993,1.57164 4.1764,2.3467 4.42678,3.04569 8.25859,4.48039 13.09778,4.90408 6.65432,0.58257 11.33311,0.58393 14.41187,0.005 z m -346.5131,-4.3013 c 8.45968,-4.45714 12.54554,-7.37446 13.37168,-9.54735 0.54579,-1.43556 -0.14779,-2.23268 -2.24575,-2.58107 -0.9057,-0.15039 -2.41227,-0.56186 -3.34794,-0.9144 -3.30745,-1.24609 -6.25129,-0.74338 -8.27504,1.41304 -0.58438,0.62273 -1.97009,1.2257 -3.58933,1.56181 -3.21212,0.66686 -4.84773,2.2186 -5.83202,5.53303 -0.90558,3.04948 -0.87625,3.33181 0.48785,4.69589 1.10552,1.10554 1.35284,1.15567 4.51809,0.91629 1.91156,-0.14457 4.01968,-0.60684 4.91246,-1.07724 z m -15.97561,-3.43283 c 1.81926,-1.3968 2.85229,-4.87593 2.03123,-6.84099 -0.6431,-1.53915 -3.66557,-4.31235 -4.69997,-4.31235 -1.13296,0 -3.60445,2.93415 -3.92909,4.66462 -0.41208,2.19658 0.31745,3.78145 2.57797,5.60063 1.94297,1.56361 2.87253,1.76896 4.01986,0.88809 z m -10.24338,-9.3883 c 2.43541,-1.9157 3.30333,-5.44072 1.69743,-6.89405 -1.22916,-1.11235 -5.40077,-1.86336 -6.94742,-1.25069 -1.52799,0.60526 -1.60062,1.76449 -0.3368,5.37574 1.33152,3.80464 3.13428,4.69814 5.58679,2.769 z m 65.2605,-4.70469 c 0.4581,-0.41458 0.89463,-1.72397 1.06881,-3.20601 0.39598,-3.36921 1.28615,-4.95804 3.0897,-5.51476 0.81087,-0.25029 6.34748,-0.57747 12.30358,-0.72709 5.9561,-0.14963 12.45367,-0.45975 14.43903,-0.68915 1.98537,-0.2294 6.55397,-0.61749 10.15244,-0.86242 6.09712,-0.41498 10.66001,-1.2483 12.64141,-2.30871 0.45972,-0.24605 2.01674,-0.44923 3.46003,-0.45158 1.7455,-0.005 4.36172,-0.54976 7.81319,-1.63332 2.85396,-0.89594 6.21934,-1.72298 7.47856,-1.83777 2.17461,-0.19827 2.3615,-0.1268 3.72256,1.42337 1.39968,1.59411 1.74969,3.00927 1.51195,6.11294 -0.26433,3.45138 1.21121,4.38112 5.4015,3.4036 1.51452,-0.35335 3.99754,-1.14552 5.51774,-1.76039 2.95765,-1.19632 6.01972,-2.02693 16.83112,-4.56553 3.7662,-0.88435 7.59214,-1.919 8.50216,-2.29924 2.26647,-0.94697 15.37702,-4.25405 16.86483,-4.25405 0.66257,0 2.21341,-0.28034 3.44628,-0.623 2.55286,-0.70954 12.8029,-4.4645 14.94399,-5.47456 0.782,-0.36892 1.74197,-0.67074 2.13327,-0.67074 0.3913,0 1.78196,-0.49783 3.09036,-1.10625 1.3084,-0.60847 4.20631,-1.6493 6.43985,-2.31291 2.23354,-0.66365 5.17775,-1.76233 6.54269,-2.4415 1.36494,-0.67918 3.21331,-1.4717 4.10745,-1.76116 2.25871,-0.73125 3.74972,-2.40333 3.39683,-3.80933 -0.15229,-0.60666 -1.75074,-2.38835 -3.55214,-3.95923 -1.8014,-1.57087 -4.86654,-4.3535 -6.81143,-6.1836 -1.94485,-1.83006 -4.58448,-3.81764 -5.86586,-4.41676 -2.36073,-1.10387 -4.9968,-3.1141 -10.12388,-7.72037 -3.25415,-2.92364 -5.32123,-4.3933 -7.6872,-5.46545 -0.91801,-0.41602 -2.41746,-1.22226 -3.33203,-1.79165 -1.25376,-0.78061 -2.61478,-1.10251 -5.53187,-1.30836 l -3.86902,-0.27303 -4.84407,2.29815 c -2.66427,1.264 -5.85936,2.52326 -7.10021,2.79842 -1.24086,0.27511 -3.60168,0.98384 -5.24633,1.57493 -1.64461,0.5911 -4.52948,1.39269 -6.41084,1.78128 -7.35872,1.51998 -9.21517,0.67701 -9.40658,-4.27124 -0.10216,-2.64076 0.0203,-3.12357 1.17908,-4.6426 1.41273,-1.85221 6.7484,-5.84684 11.84808,-8.87027 4.35829,-2.58389 5.40164,-3.72003 4.85007,-5.28135 -0.24645,-0.69764 -2.49614,-2.87525 -5.38666,-5.21406 -2.72988,-2.20887 -6.08018,-5.08471 -7.44512,-6.39077 -2.78105,-2.66111 -6.17399,-5.13241 -9.08612,-6.61807 -2.43144,-1.24043 -12.61601,-10.51722 -17.4599,-15.90366 -1.07476,-1.19514 -3.61273,-3.35921 -5.64002,-4.80905 -2.02724,-1.44984 -4.59964,-3.58756 -5.71641,-4.75049 -1.11677,-1.16292 -3.24878,-3.05169 -4.73779,-4.19726 -1.48902,-1.14557 -4.53476,-3.69413 -6.76829,-5.66348 -5.12766,-4.52114 -8.79138,-7.23102 -11.97635,-8.85834 -1.3754,-0.70274 -3.75215,-2.48336 -5.28166,-3.95694 -3.54036,-3.41088 -5.08599,-4.56745 -8.56337,-6.40783 -1.54504,-0.81771 -3.84128,-2.47632 -5.10275,-3.68581 -1.26147,-1.20949 -2.55501,-2.19907 -2.87452,-2.19907 -1.64478,0 -17.38143,-12.99202 -19.7823,-16.33206 -0.80838,-1.12462 -1.79433,-1.84591 -3.0287,-2.21574 -1.00657,-0.30157 -2.59003,-1.19411 -3.51879,-1.98341 -2.08376,-1.77086 -7.07957,-5.18831 -7.58456,-5.18831 -0.20449,0 -0.89052,-0.47876 -1.52453,-1.06392 -0.63401,-0.58515 -3.34107,-2.71716 -6.01569,-4.7378 l -4.86295,-3.6739 -2.80778,0.001 c -2.12439,9e-4 -4.2355,0.48404 -8.67364,1.98427 -11.26782,3.80888 -18.08348,7.01636 -25.94513,12.20989 -2.35762,1.55748 -4.79421,2.98387 -5.41464,3.16975 -1.68881,0.50596 -10.89363,5.79358 -16.00734,9.19528 -3.29716,2.19331 -6.5628,5.04618 -12.20802,10.665 -4.23873,4.21891 -8.39081,8.68598 -9.22685,9.92684 -0.83603,1.24085 -1.99227,2.83006 -2.56942,3.53157 -1.14905,1.39666 -1.41352,3.96176 -0.48533,4.70731 0.31021,0.24918 1.79012,0.5377 3.28869,0.64116 2.37993,0.16432 3.12209,0.46623 5.86585,2.38618 1.72766,1.20894 3.75034,2.75727 4.49485,3.44075 0.74451,0.68347 3.76628,2.42138 6.71504,3.86201 4.35489,2.12761 5.55878,2.93203 6.41285,4.28495 0.5783,0.91609 1.76096,2.20678 2.62813,2.86821 3.11894,2.37893 8.16632,9.17875 10.046,13.53397 0.42844,0.99268 1.65115,3.47784 2.71714,5.52258 1.06599,2.04474 1.93992,3.9737 1.94205,4.28658 0.002,0.31289 0.83571,2.2948 1.85239,4.40426 1.01667,2.10945 2.52369,5.81759 3.34893,8.24032 1.33441,3.91755 1.5648,5.34048 2.08211,12.85976 0.66141,9.61376 0.65356,13.27455 -0.0338,15.7499 -0.2641,0.95112 -0.48578,3.35369 -0.49261,5.33905 -0.009,2.55409 -0.26167,4.15871 -0.86469,5.48679 -0.46874,1.03234 -0.99918,3.24896 -1.17875,4.92578 -0.17958,1.67683 -0.88268,4.69012 -1.56247,6.69615 -2.4635,7.26987 -7.94734,18.92654 -9.66013,20.53397 -2.61475,2.45391 -1.07158,3.88572 7.269,6.74456 8.26934,2.83438 9.72835,2.44272 10.80581,-2.90062 0.62261,-3.0877 2.02961,-15.16802 2.87867,-24.71592 0.23906,-2.68832 0.54979,-5.07415 0.69052,-5.30183 0.40679,-0.6582 1.43417,-0.48055 1.7336,0.29974 0.39038,1.01732 0.27058,6.25458 -0.21589,9.43871 -0.2275,1.48902 -0.60018,5.24543 -0.82818,8.34756 -0.22801,3.10214 -0.83694,7.24636 -1.35318,9.20939 -1.89455,7.20409 -0.92842,9.74184 3.70874,9.74184 4.40673,0 5.38813,-2.32879 6.65532,-15.79269 0.26861,-2.85397 0.57896,-5.46572 0.68965,-5.80386 0.37309,-1.13969 1.37192,0.27168 1.97684,2.79328 0.49818,2.0766 0.46498,3.13751 -0.23672,7.56361 -1.654,10.43292 -1.32562,13.71225 1.47493,14.72952 2.34419,0.8515 7.10365,1.57896 11.64019,1.77912 2.48171,0.10951 6.13659,0.47856 8.12195,0.82018 5.0371,0.86666 18.97493,0.55049 20.0867,-0.45564 z m -85.40098,-16.22162 c 1.17894,-0.6119 3.05725,-1.52738 4.17402,-2.03437 2.10945,-0.95775 3.05673,-2.09194 8.67744,-10.38973 1.70776,-2.52115 2.60211,-4.29923 2.61003,-5.18903 0.007,-0.74451 0.52534,-2.775 1.15269,-4.5122 1.18128,-3.27111 1.79003,-7.51095 2.3776,-16.55962 0.24363,-3.75203 0.54709,-5.51418 1.04904,-6.09147 0.92831,-1.06776 1.36978,-4.08719 0.76326,-5.22047 -0.26408,-0.49346 -0.53838,-2.85072 -0.60957,-5.23842 -0.0712,-2.38768 -0.45613,-5.72443 -0.85545,-7.41498 -0.39931,-1.69055 -0.72601,-4.48621 -0.72601,-6.21257 0,-2.82394 -0.99016,-7.68891 -2.22704,-10.94214 -0.99638,-2.62068 -6.25775,-12.87243 -8.04621,-15.67798 -2.06844,-3.24477 -10.28013,-10.87693 -15.40186,-14.31489 -1.59024,-1.06745 -4.13254,-3.03053 -5.64954,-4.36238 -1.83463,-1.61072 -3.96427,-2.91925 -6.36008,-3.90788 -3.14206,-1.29657 -4.12029,-1.48829 -7.66285,-1.50176 -5.92945,-0.0226 -6.27867,0.22073 -10.51567,7.32614 -1.27273,2.13436 -2.19336,4.12989 -5.04224,10.92937 -0.46791,1.11677 -1.39336,3.24879 -2.05657,4.73781 -1.09667,2.46226 -1.41321,4.02659 -2.30366,11.38485 -0.36115,2.98446 0.19455,3.74216 2.71442,3.7011 1.02424,-0.0167 3.66022,0.11132 5.85774,0.28446 3.63966,0.28677 4.39636,0.52346 8.49692,2.65771 9.31092,4.84614 13.6811,8.99537 17.13068,16.26457 1.04003,2.19163 1.28482,3.32228 1.2851,5.93574 4.6e-4,5.29372 -1.28949,14.96043 -2.2409,16.7913 -1.05517,2.03057 -9.63442,10.53056 -11.64484,11.53728 -2.12773,1.06542 -9.69083,2.55507 -11.31913,2.22943 -0.76094,-0.1522 -1.89862,-0.14746 -2.52818,0.0104 -2.19506,0.55093 -1.45097,2.01203 3.23971,6.36156 2.40871,2.23354 5.50411,5.26515 6.87866,6.73689 3.01524,3.22848 3.58487,3.76863 6.85499,6.50023 3.20998,2.68132 3.52328,2.84444 10.08378,5.24971 6.44923,2.36453 8.73563,2.54429 11.84372,0.93118 z M 95.254824,865.25054 c 0.90989,-0.63731 1.00284,-1.07851 1.00284,-4.76023 0,-8.43871 2.64099,-8.91773 9.502236,-1.72344 3.73567,3.91699 5.12605,4.43824 7.25035,2.7181 2.17376,-1.7602 1.5289,-10.99117 -0.99168,-14.19555 -1.72327,-2.1908 -3.11489,-2.58003 -9.57667,-2.67853 -6.430436,-0.098 -8.041206,0.26424 -14.556419,3.2741 -2.97737,1.37545 -3.97243,2.53342 -4.78379,5.56701 -0.44547,1.66554 -0.40454,2.37301 0.25585,4.42177 1.18943,3.68994 2.43177,5.23582 5.41426,6.73698 2.96813,1.49399 4.98003,1.69253 6.483023,0.63979 z M 130.10597,864.916 c 0.60302,-0.42234 1.58305,-0.76793 2.17783,-0.76793 1.40045,0 6.0103,-2.80442 7.47899,-4.54983 1.11761,-1.32821 2.97049,-6.41453 2.97049,-8.15426 0,-0.48253 0.33422,-1.52363 0.74271,-2.31354 0.66358,-1.28322 0.68253,-1.96587 0.17782,-6.40748 -1.04999,-9.24038 -2.50079,-11.5552 -10.20414,-16.28123 -6.9137,-4.24158 -9.71678,-5.12099 -15.13851,-4.74941 -3.73935,0.25628 -4.01651,0.35283 -7.08347,2.46762 -5.55689,3.83172 -6.50619,5.07589 -6.55704,8.59381 -0.0419,2.9007 0.49326,3.6597 3.54433,5.02654 2.59369,1.16194 4.28283,2.82139 7.11294,6.98794 2.47181,3.63904 3.06305,5.36306 3.01913,8.80389 -0.0855,6.69817 0.039,10.39262 0.36694,10.8919 0.70481,1.07291 2.65445,1.48225 6.44097,1.35226 2.72936,-0.0937 4.17468,-0.35651 4.95101,-0.90028 z m 220.27425,-14.59641 c 1.81403,-0.65684 4.21195,-1.45171 5.32872,-1.7663 4.99049,-1.40587 11.60523,-3.94826 12.95898,-4.98079 1.97747,-1.5083 1.9819,-3.13701 0.0135,-5.00492 -2.41149,-2.28848 -4.22612,-2.99048 -6.99219,-2.705 -1.33461,0.13775 -3.17545,0.66629 -4.09066,1.17455 -0.91526,0.50826 -3.2755,1.76116 -5.24494,2.78423 -7.42409,3.85664 -10.88617,8.26623 -8.53215,10.86742 1.02219,1.12953 2.67704,1.0364 6.55866,-0.36919 z M 88.264711,836.93834 c 0.12404,-0.32327 -0.37908,-2.91214 -1.11805,-5.75305 -0.73899,-2.8409 -1.79806,-6.99272 -2.3535,-9.22626 -0.55545,-2.23353 -1.73862,-5.88841 -2.62927,-8.12195 -0.89066,-2.23354 -1.86322,-5.27927 -2.16125,-6.76829 -0.55058,-2.75077 -4.49441,-13.10996 -7.64433,-20.07928 -0.95342,-2.10945 -2.78231,-6.17043 -4.06422,-9.02439 -3.44736,-7.67506 -11.298,-20.72163 -15.47647,-25.71952 -2.53414,-3.03109 -8.68476,-9.10723 -9.82175,-9.7028 -1.51673,-0.79447 -7.90911,-1.16119 -8.71052,-0.49971 -0.33399,0.27571 -1.04489,1.14178 -1.57968,1.9246 -1.27605,1.86771 -1.31201,6.57197 -0.087,11.37004 1.03713,4.06205 4.62383,12.48846 5.88883,13.83501 0.48307,0.51417 1.11311,1.63679 1.40013,2.49471 0.28707,0.85793 1.26761,2.57511 2.17903,3.81596 2.86588,3.90179 8.38578,12.48868 10.42223,16.21312 1.07629,1.96844 2.57818,4.28398 3.33753,5.14566 0.75941,0.86169 2.19289,2.73112 3.18557,4.15429 5.3188,7.62539 12.23166,17.20332 13.98984,19.38329 3.23118,4.00628 7.97254,9.77332 10.02851,12.1979 1.04972,1.23792 2.22247,2.85775 2.6061,3.59961 0.71826,1.38896 2.20122,1.82168 2.60822,0.76106 z M 573.96479,808.78176 c 5.19318,-2.68026 13.04792,-7.0585 16.60398,-9.25506 2.23354,-1.37965 5.68537,-3.41484 7.67074,-4.52263 5.04774,-2.81655 9.70361,-5.70285 11.1703,-6.92477 0.68391,-0.56978 3.93269,-2.50332 7.21951,-4.29676 6.83364,-3.72873 13.12454,-8.05664 17.73686,-12.20231 1.75322,-1.57581 4.44903,-3.83359 5.99071,-5.01727 1.54164,-1.18369 3.20294,-2.80808 3.69174,-3.60976 1.75647,-2.88079 0.79054,-6.43407 -2.16292,-7.95632 -0.92554,-0.47703 -2.38803,-1.60149 -3.25004,-2.4988 -0.86197,-0.89732 -2.89246,-2.46985 -4.5122,-3.49452 -1.6197,-1.02467 -4.87389,-3.08061 -7.23152,-4.56877 -7.22502,-4.5605 -9.10823,-5.87268 -11.47907,-7.99858 -2.77662,-2.48969 -6.746,-5.56839 -12.41062,-9.62577 -5.11037,-3.66037 -12.38376,-9.56848 -15.68047,-12.73705 -3.03467,-2.91669 -3.06274,-3.75646 -0.24997,-7.47537 3.15064,-4.16563 3.83397,-4.35019 19.28964,-5.20972 6.94878,-0.38644 13.04025,-0.6674 13.53659,-0.62435 0.49634,0.043 8.2122,0.18346 17.14635,0.31203 16.65087,0.23963 31.4608,-0.46973 33.58925,-1.60884 1.42392,-0.76205 1.17881,-2.48717 -0.5374,-3.78228 -3.75979,-2.83727 -10.2352,-4.26631 -21.77136,-4.80464 -4.71525,-0.22004 -10.65695,-0.63372 -13.20377,-0.9193 -3.37328,-0.37825 -5.0149,-0.38526 -6.04599,-0.0258 -0.77848,0.27138 -2.25618,0.49341 -3.28375,0.49341 -1.0276,0 -3.0377,0.30457 -4.46689,0.67683 -1.65936,0.43221 -4.70045,0.67683 -8.41434,0.67683 -3.43464,0 -6.982,0.26551 -8.66396,0.64847 -1.5665,0.35667 -5.69083,0.968 -9.16522,1.35854 -3.47439,0.39054 -8.85519,1.11388 -11.95732,1.60742 -9.80063,1.55924 -11.78812,1.81442 -19.04508,2.44525 -6.10798,0.53096 -7.34708,0.52678 -8.96389,-0.0303 -1.03189,-0.35552 -2.75893,-0.76739 -3.83785,-0.91527 -1.07895,-0.14789 -2.31056,-0.65436 -2.73691,-1.12549 -0.67489,-0.74575 -0.70702,-1.13224 -0.24808,-2.98666 0.28991,-1.17153 0.5702,-3.72765 0.62286,-5.68026 0.0816,-3.02792 -0.0298,-3.64194 -0.7571,-4.17378 -1.18391,-0.86571 -3.97322,-0.77875 -7.92766,0.24715 -1.84594,0.4789 -4.95069,1.08889 -6.89937,1.35553 -1.94869,0.26664 -3.74815,0.61156 -3.99885,0.76648 -0.25065,0.15492 -3.32256,0.34707 -6.82646,0.42701 -6.79415,0.15499 -9.79268,0.53609 -17.66822,2.24548 -2.72988,0.59253 -7.21776,1.38253 -9.97304,1.75557 -2.75533,0.37304 -6.71478,1.07575 -8.79879,1.56159 -2.08404,0.48583 -6.12422,1.29994 -8.97818,1.80913 -2.85397,0.50918 -6.61037,1.22614 -8.34757,1.59323 -1.73719,0.3671 -4.199,0.67492 -5.47072,0.68404 -2.56202,0.0184 -5.77457,0.99435 -7.03871,2.13837 -0.45239,0.40941 -1.13468,1.87616 -1.51628,3.25946 -1.51362,5.48744 -3.06938,9.83161 -4.30509,12.02115 -1.27135,2.2527 -1.61198,4.02239 -0.95193,4.94525 0.18233,0.25492 2.05742,1.68723 4.16687,3.1829 4.4151,3.13046 9.7366,7.41408 13.77908,11.09171 1.5448,1.40534 3.49276,2.9056 4.32887,3.33391 0.83606,0.42831 2.15204,1.30897 2.9244,1.95703 1.24514,1.04478 5.15486,3.99548 8.7357,6.59291 0.68427,0.49635 2.33754,1.63027 3.67401,2.51982 1.33647,0.88956 2.73448,1.99035 3.10674,2.44619 0.37225,0.45585 2.80884,2.23514 5.41463,3.95399 2.6058,1.71885 5.76145,4.0699 7.01259,5.22455 1.25109,1.15465 3.62731,3.19568 5.28044,4.53563 1.65313,1.33995 3.59794,3.17325 4.32178,4.074 0.72389,0.90074 3.62695,3.38771 6.45127,5.52658 2.82432,2.13887 5.7443,4.54003 6.48881,5.3359 0.74451,0.79587 3.38415,2.87603 5.86585,4.62258 2.48172,1.74656 5.3244,3.94107 6.31708,4.87671 0.99269,0.93564 4.36673,3.69872 7.49783,6.14018 4.85011,3.78179 8.8439,6.64903 21.79355,15.64617 2.14036,1.48708 4.44253,1.48126 7.34856,-0.0186 z m 158.18233,-25.37753 c 5.0389,-1.31158 5.97446,-1.70655 7.46218,-3.15033 1.96862,-1.91047 3.24792,-4.35397 3.24197,-6.19234 -0.005,-1.46842 -4.70595,-11.842 -6.66835,-14.71417 -0.7188,-1.05202 -1.85276,-2.72496 -2.51993,-3.71764 -2.82906,-4.20931 -5.71849,-7.49046 -9.49899,-10.78666 -2.21467,-1.93096 -5.15883,-4.97581 -6.54263,-6.76632 -3.75226,-4.85512 -8.30809,-10.19703 -8.69654,-10.19703 -0.18821,0 -2.74937,-2.2843 -5.69146,-5.07622 -6.51891,-6.18607 -10.39791,-9.57931 -13.46214,-11.77625 -2.73629,-1.96181 -12.32682,-6.4082 -15.12606,-7.01279 -3.11088,-0.6719 -20.87391,-0.72743 -38.50321,-0.12037 -8.93415,0.30764 -16.65001,0.58767 -17.14635,0.62229 -0.49634,0.0346 -3.33903,-0.16966 -6.31708,-0.45396 -4.5061,-0.43019 -9.83437,-0.30079 -14.06839,0.34165 -0.41598,0.0631 -1.49868,1.57504 -1.49868,2.0928 0,0.83015 5.52067,6.79266 7.65774,8.27061 0.87572,0.60565 3.11513,2.33354 4.97641,3.83975 1.86128,1.50621 4.19634,3.27052 5.18902,3.92069 0.99269,0.65017 2.98423,2.22183 4.42566,3.49257 1.44142,1.27075 2.91596,2.31045 3.2768,2.31045 0.36084,0 1.88465,1.21722 3.38631,2.70494 1.50161,1.48772 3.68195,3.24686 4.84515,3.9092 1.16316,0.66234 2.62249,1.65683 3.24292,2.20998 0.62043,0.55316 2.16513,1.52393 3.43261,2.15727 1.26752,0.63335 2.89191,1.62978 3.60975,2.21428 0.71789,0.5845 2.82807,1.95074 4.68935,3.03609 1.86128,1.08534 4.50093,2.87932 5.86587,3.98662 1.36494,1.1073 3.04487,2.21043 3.73321,2.4514 0.68833,0.24098 1.50053,0.90157 1.80488,1.46799 0.82753,1.54012 4.16855,4.03567 8.22411,6.14299 1.98536,1.03161 4.85381,2.76242 6.37438,3.84623 1.52052,1.08382 2.89669,1.97058 3.05809,1.97058 0.1614,0 2.42269,1.26905 5.02506,2.82012 2.60236,1.55107 5.62386,3.33013 6.71442,3.95348 1.09055,0.62335 2.35685,1.45384 2.81398,1.84554 0.45713,0.39171 2.05838,1.15986 3.55832,1.70703 1.49994,0.54716 3.32738,1.3963 4.06098,1.88698 4.06729,2.72051 10.6121,5.26497 20.28503,7.88633 3.44411,0.93335 8.30045,0.56424 14.78561,-1.12378 z m -33.68734,-1.007 c 0.49472,-0.80048 -2.05169,-2.70007 -6.86436,-5.12067 -2.34566,-1.17978 -4.37223,-2.31883 -4.50349,-2.53122 -0.13126,-0.2124 -1.69929,-1.09472 -3.48454,-1.96071 -6.09715,-2.95766 -20.71667,-12.21492 -29.36276,-18.59282 -1.95572,-1.44267 -5.27382,-3.89115 -7.37348,-5.44107 -2.09971,-1.54991 -5.67729,-3.92143 -7.95022,-5.27004 -2.27298,-1.3486 -5.85855,-3.78382 -7.968,-5.41159 -2.10945,-1.62777 -5.15518,-3.91672 -6.76829,-5.08654 -6.4307,-4.66353 -19.09571,-14.6014 -22.7866,-17.87999 -2.40563,-2.13691 -6.40411,-4.36919 -7.82609,-4.36919 -0.47423,0 -1.1317,0.32472 -1.46104,0.72159 -0.8811,1.06162 0.69379,3.72963 2.94465,4.98856 0.97875,0.54741 4.39403,3.39526 7.58961,6.32855 6.59236,6.05133 8.48537,7.35815 10.66349,7.36144 1.72235,0.003 4.62189,1.74832 9.92074,5.97298 1.83227,1.46081 4.77648,3.63421 6.54269,4.82979 1.76625,1.19557 4.70676,3.74124 6.53447,5.65704 3.14875,3.30047 7.22024,6.25722 13.372,9.71081 1.48902,0.83594 5.04238,3.19481 7.89634,5.24194 2.85397,2.04713 6.37258,4.34292 7.81914,5.10175 1.44657,0.75883 3.21341,1.79504 3.92634,2.30268 0.71292,0.50764 2.37201,1.39893 3.68696,1.98065 1.3149,0.58171 3.50751,1.7222 4.87245,2.53442 1.36494,0.81221 4.2966,2.37873 6.5148,3.48115 2.21815,1.10242 4.7008,2.51374 5.51697,3.13626 1.42712,1.08851 5.87389,2.77093 7.45686,2.82127 0.41963,0.0134 0.91074,-0.21482 1.09136,-0.50704 z M 159.61111,734.37155 c 0.40812,-1.06356 -1.31466,-3.56862 -3.77615,-5.4908 -3.29304,-2.57153 -9.9577,-8.16404 -11.97363,-10.04742 -0.99268,-0.9274 -2.55459,-2.06328 -3.47092,-2.52416 -1.66313,-0.83651 -6.15801,-4.47552 -11.37014,-9.20515 -1.51608,-1.37573 -3.5687,-3.08697 -4.56138,-3.80276 -0.99269,-0.71579 -2.63312,-2.02678 -3.64542,-2.91331 -2.7597,-2.41685 -10.86278,-8.4627 -16.61119,-12.39391 -3.27067,-2.23674 -4.19162,-2.97289 -11.103159,-8.87524 -2.35762,-2.01338 -4.84599,-3.95297 -5.52971,-4.31021 -2.88354,-1.50662 -11.36106,-8.3235 -16.95862,-13.63663 -3.31033,-3.14214 -6.43006,-5.90665 -6.93272,-6.14337 -1.26667,-0.59653 -2.31548,0.84287 -1.95753,2.68649 1.07043,5.51307 4.63145,10.49592 11.28834,15.79554 2.3421,1.86455 4.79976,4.09992 5.46148,4.96749 0.66172,0.86757 2.7332,2.53104 4.60327,3.6966 4.14397,2.58283 9.24911,6.46776 11.379153,8.65937 0.8686,0.8937 3.06337,2.64016 4.87728,3.88101 1.813896,1.24086 4.212066,3.01753 5.329266,3.94817 1.1172,0.93065 2.20275,1.69208 2.41235,1.69208 0.2096,0 1.21094,0.65991 2.22519,1.46646 3.69192,2.93587 4.45166,3.46559 6.62871,4.6218 1.21893,0.64736 2.82538,1.74614 3.56989,2.44173 0.74451,0.69559 2.28025,1.70031 3.41274,2.2327 1.19533,0.56193 4.50773,3.29164 7.89635,6.50727 10.78219,10.23179 14.39115,12.92993 21.62995,16.17106 3.18278,1.42508 6.74103,1.71027 7.1766,0.57519 z m 13.54355,-7.14923 c 2.43715,-1.66729 5.3817,-3.13421 8.88245,-4.42505 2.8802,-1.06203 6.03757,-2.46094 7.01638,-3.10869 0.9788,-0.64774 2.8155,-1.70262 4.08156,-2.34418 2.8913,-1.46513 4.19406,-3.07913 4.2016,-5.2054 0.007,-1.91508 -1.15895,-7.54883 -2.15043,-10.39258 -0.80924,-2.32103 -5.15552,-6.80323 -9.36146,-9.6542 -1.48902,-1.00933 -3.82409,-2.89164 -5.18902,-4.18291 -1.36494,-1.29127 -3.57947,-2.99206 -4.92117,-3.77954 -2.42276,-1.42198 -4.53546,-3.05487 -8.55179,-6.60958 -3.21828,-2.8484 -16.50975,-13.37499 -18.17021,-14.39047 -0.81159,-0.49634 -1.96146,-1.17628 -2.55526,-1.51097 -0.59381,-0.33468 -1.48714,-1.29917 -1.98519,-2.14329 -0.49804,-0.84412 -1.23681,-1.53477 -1.6417,-1.53477 -1.09858,0 -5.6754,-2.94041 -9.97501,-6.40853 -2.09353,-1.68866 -5.34231,-4.12439 -7.21952,-5.41272 -1.8772,-1.28834 -5.93069,-4.24198 -9.00775,-6.56365 -5.63995,-4.2554 -6.88844,-4.76455 -7.86433,-3.20716 -0.35326,0.56376 0.0596,2.14415 1.70918,6.54269 2.9563,7.88279 3.01674,8.60872 0.91078,10.93977 -0.92099,1.01942 -2.04122,1.8535 -2.48939,1.8535 -2.08793,0 -5.71564,-3.91239 -10.234126,-11.03725 -2.8717,-4.52819 -3.72878,-5.20665 -6.577333,-5.20665 -1.3526,0 -4.05862,0.411 -6.01337,0.91334 -1.95475,0.50235 -5.93841,1.41008 -8.85258,2.01717 -5.6083,1.16837 -7.04729,1.73022 -9.31205,3.6359 -1.64054,1.38042 -1.73435,2.14242 -0.51073,4.14928 1.29942,2.13124 12.61075,13.41231 14.31238,14.27413 0.79597,0.40313 2.61238,1.79823 4.03647,3.10023 1.42409,1.302 3.92011,3.5894 5.54669,5.08311 1.6266,1.49371 4.074213,3.6173 5.439153,4.71908 1.36494,1.10179 4.410666,3.74503 6.768286,5.87387 2.35763,2.12884 5.50077,4.65767 6.98478,5.61961 4.72767,3.06451 9.39701,6.65313 12.41767,9.54359 1.70818,1.63455 3.96925,3.26645 5.41464,3.90793 1.36493,0.60578 3.56411,1.99464 4.88706,3.08636 3.58684,2.95993 7.66979,6.05047 10.40846,7.87853 3.48777,2.32809 15.85524,12.0535 17.19229,13.51951 1.684,1.84641 5.31864,3.45609 7.18357,3.1814 0.84882,-0.12503 3.18388,-1.34966 5.18902,-2.72141 z m 29.21689,-14.52838 c 1.10748,-1.00225 1.15959,-5.35533 0.0784,-6.55002 -1.73644,-1.91876 -3.31421,-0.67155 -3.31421,2.61985 0,4.20348 1.25265,5.72492 3.23581,3.93017 z M 445.4073,709.1243 c 0.55487,-0.38865 1.37983,-1.45466 1.83317,-2.3689 1.31675,-2.65526 4.10096,-12.73892 4.46365,-16.166 0.32582,-3.07894 -0.21627,-3.56851 -5.18271,-4.68091 -5.53475,-1.23967 -14.77108,-3.90768 -16.34422,-4.72119 -1.7431,-0.90139 -4.76149,-4.33942 -6.01322,-6.84919 -0.59909,-1.2012 -1.54209,-4.21449 -2.09556,-6.6962 -1.40807,-6.31331 -2.58747,-10.16812 -3.5561,-11.62272 -0.45582,-0.68456 -2.28259,-2.55401 -4.0594,-4.15432 -3.52227,-3.17234 -6.16262,-4.30223 -10.05362,-4.30223 -2.31156,0 -3.00513,0.44331 -10.19125,6.51399 -2.97846,2.51612 -7.1896,5.40573 -9.39543,6.44696 -0.49634,0.2343 -2.87671,0.80315 -5.2897,1.26413 -3.95751,0.75604 -4.85571,0.78089 -9.1695,0.25368 -4.35206,-0.5319 -5.31866,-0.83937 -10.74562,-3.41807 -3.66986,-1.7438 -7.1512,-3.78613 -9.05191,-5.3103 l -3.08856,-2.47672 -4.65419,-0.31176 c -2.9795,-0.19959 -4.97163,-0.1419 -5.53633,0.16031 -0.48515,0.25965 -1.6299,1.4908 -2.54389,2.73591 -0.91399,1.2451 -1.94372,2.26382 -2.28827,2.26382 -1.00744,0 -7.13978,-3.10856 -7.75705,-3.93212 -0.6877,-0.91758 -0.72348,-3.37186 -0.0828,-5.67904 0.34171,-1.23041 0.33246,-2.15032 -0.0325,-3.25657 -0.51407,-1.55765 -2.75636,-3.82739 -3.78113,-3.82739 -1.14952,0 -2.14812,1.21883 -2.59803,3.17108 -0.54033,2.34429 -1.54272,11.85564 -2.22559,21.11716 -0.58839,7.98006 -0.30837,9.47122 2.84566,15.15428 3.93346,7.08748 13.77853,16.23341 20.19817,18.76378 1.25222,0.49358 3.23718,1.38285 4.41103,1.97614 1.17385,0.59329 4.67233,1.84711 7.77447,2.78627 4.5367,1.37347 6.39739,1.71478 9.50999,1.74444 3.53432,0.0337 4.00765,-0.0683 5.4613,-1.17652 2.19423,-1.67279 2.87075,-3.4463 2.24811,-5.89354 -0.38363,-1.50791 -0.35913,-2.04661 0.1147,-2.52209 0.50351,-0.50529 0.83042,-0.48676 1.98988,0.11281 1.8319,0.94733 3.2143,0.89161 4.59066,-0.18502 1.39449,-1.09077 1.85708,-1.09375 4.96342,-0.032 4.0529,1.38527 6.72768,2.72275 7.19627,3.59834 0.24199,0.45215 1.05689,1.07762 1.81088,1.38994 1.59028,0.65871 1.72023,1.45119 0.49368,3.0105 -0.48244,0.61337 -0.76743,1.40131 -0.63324,1.75097 0.28116,0.73272 2.84359,1.32181 4.06576,0.93471 1.25349,-0.39702 17.04604,-1.62191 20.9536,-1.62519 1.88628,-10e-4 4.0418,-0.21627 4.79002,-0.4771 1.06894,-0.37264 2.19807,-0.26801 5.27083,0.48843 2.65565,0.65377 4.48972,0.8648 5.71573,0.65767 1.62493,-0.27454 2.005,-0.14132 3.80527,1.33387 1.86701,1.5299 8.62105,4.6765 10.16558,4.736 0.37907,0.0146 1.14321,-0.29144 1.69812,-0.68009 z m -63.37791,-4.97528 c 1.53077,-0.89153 3.24008,-2.04369 3.79846,-2.56037 2.00418,-1.85442 0.8182,-4.18668 -2.46876,-4.85493 -0.93772,-0.19066 -2.33312,-0.48805 -3.10082,-0.66088 -1.32176,-0.29758 -1.54326,-0.13101 -4.17378,3.13894 -3.39128,4.21561 -3.55047,5.5427 -0.7475,6.23169 2.37811,0.58454 4.00711,0.26946 6.6924,-1.29445 z m 313.61717,-0.67977 c 1.15562,-1.01722 2.63386,-2.75848 3.28493,-3.86945 1.50838,-2.57384 5.11904,-13.42259 5.11904,-15.38085 0,-0.81783 0.49977,-3.96851 1.11058,-7.00151 1.32564,-6.58224 2.04633,-16.99499 2.0369,-29.42919 -0.009,-12.66989 -1.01366,-18.36228 -4.10714,-23.28423 -0.71793,-1.1423 -1.9818,-3.80012 -2.80866,-5.90626 -0.82681,-2.10614 -2.15972,-4.78338 -2.96198,-5.94941 -2.63269,-3.82651 -10.23087,-12.66745 -12.03394,-14.00231 -0.97143,-0.71916 -2.43393,-1.93625 -3.24991,-2.70464 -0.81603,-0.76839 -2.84652,-2.14345 -4.5122,-3.05569 -1.66572,-0.91225 -4.01148,-2.19407 -5.21285,-2.8485 -2.411,-1.31339 -8.34269,-2.46873 -12.70594,-2.47479 -1.48902,-0.002 -4.63628,0.48171 -6.9939,1.07506 -2.35763,0.59335 -5.40337,1.2136 -6.76831,1.37834 -1.36494,0.16474 -3.80153,0.7074 -5.41464,1.20591 -4.45899,1.37798 -16.94293,7.48129 -20.51641,10.03033 -6.1573,4.39209 -8.04489,5.92107 -9.41547,7.62653 -0.76166,0.9478 -2.05174,2.13545 -2.86691,2.63923 -1.81314,1.12059 -5.90899,6.11385 -9.6413,11.75367 -1.53302,2.31653 -3.37242,5.02407 -4.08751,6.01675 -0.71514,0.99269 -2.7598,4.24147 -4.54369,7.21952 -2.38786,3.98624 -4.52235,6.78357 -8.09132,10.6039 -4.81614,5.15534 -10.58092,12.56462 -13.15531,16.90806 -0.7395,1.2477 -2.00639,3.3853 -2.81525,4.75024 -0.8089,1.36494 -2.11852,4.04677 -2.91027,5.95963 -0.79176,1.91286 -2.06081,4.24793 -2.82008,5.18903 -2.31196,2.86557 -4.11752,7.1438 -3.81132,9.03067 0.1452,0.89482 0.47694,1.83988 0.7372,2.10015 0.86016,0.86014 6.88183,1.12975 15.80348,0.70757 11.03304,-0.52208 17.44713,-1.20225 21.20732,-2.24887 2.06631,-0.57514 5.3229,-0.89778 11.02149,-1.09193 4.44871,-0.15156 9.01731,-0.49611 10.15244,-0.76564 1.13514,-0.26954 5.31266,-0.55255 9.2834,-0.6289 3.97073,-0.0764 13.92012,-0.27771 22.10976,-0.44744 14.2257,-0.29483 15.00104,-0.26802 17.37197,0.6006 9.32387,3.41587 8.52877,2.95664 12.87555,7.43677 3.58991,3.70002 9.53269,8.66526 12.16714,10.16572 0.49634,0.2827 1.83831,0.52017 2.9822,0.52771 1.80172,0.0119 2.36069,-0.23354 4.18091,-1.83578 z M 467.16019,689.64697 c 0.62043,-0.24964 2.75244,-0.60403 4.73781,-0.78755 1.98537,-0.18352 4.32043,-0.60315 5.18903,-0.93252 2.71363,-1.02898 12.6461,-2.56438 17.59756,-2.7203 2.76977,-0.0872 7.1744,-0.64689 10.60366,-1.34736 3.22623,-0.65899 6.8811,-1.36665 8.12196,-1.57257 1.24085,-0.20593 3.32427,-0.79332 4.62983,-1.30531 1.41651,-0.55551 3.41808,-0.93143 4.96341,-0.9322 1.42432,-9e-4 4.92475,-0.38699 7.77872,-0.85841 2.85396,-0.47141 6.61037,-1.0053 8.34756,-1.18643 4.19404,-0.43728 5.18903,-0.84562 5.18903,-2.12949 0,-1.43565 -5.7448,-8.15403 -9.92963,-11.61246 -1.85975,-1.53693 -6.83319,-6.30772 -11.05209,-10.60176 -4.2189,-4.29405 -8.11424,-8.03189 -8.65633,-8.30632 -2.87296,-1.4545 -9.01149,0.63734 -14.80709,5.04587 -3.03964,2.31215 -3.98784,3.46958 -11.05953,13.5001 -2.77189,3.93163 -6.08921,8.06118 -7.45,9.274 -1.67641,1.49418 -5.20599,3.58043 -11.1486,6.58971 -4.90182,2.48224 -9.23691,4.98485 -9.9364,5.73618 -1.3236,1.42171 -1.65629,3.5742 -0.67683,4.37865 1.15598,0.94941 4.90819,0.83431 7.55793,-0.23183 z m -12.49684,-9.35689 c 5.53028,-0.49352 7.45492,-0.83677 8.57317,-1.529 0.79307,-0.49093 3.03865,-1.72998 4.99013,-2.75344 1.95153,-1.02347 4.59116,-2.53097 5.86586,-3.35001 3.40801,-2.18971 7.92743,-7.0563 10.00836,-10.77719 1.92554,-3.44306 8.13992,-11.26256 10.94944,-13.77759 2.91821,-2.61234 6.82808,-5.09552 11.64936,-7.39861 5.82042,-2.78034 6.77985,-4.16819 4.47497,-6.47309 -1.57606,-1.57606 -4.45385,-1.48509 -9.00359,0.28463 -1.96267,0.76341 -4.02957,1.69017 -4.59324,2.05948 -1.44855,0.94913 -10.14928,11.25756 -11.55889,13.6947 -1.65936,2.86896 -9.14248,9.85266 -14.34653,13.38904 -3.61625,2.45741 -6.6882,3.75684 -10.15587,4.29595 -3.17041,0.4929 -3.47881,0.46677 -4.62956,-0.39223 -1.72339,-1.28647 -2.04556,-4.16774 -1.42761,-12.76781 0.78025,-10.85876 0.77298,-11.47596 -0.13708,-11.65449 -0.43069,-0.0845 -2.72578,0.76665 -5.10023,1.89143 -5.82624,2.75993 -12.9524,4.37541 -21.18991,4.80369 -3.47439,0.18064 -6.36071,0.35228 -6.41399,0.38143 -0.0533,0.0291 -0.32078,0.47129 -0.5944,0.98254 -0.39748,0.74268 -0.13437,2.21679 1.30872,7.33232 0.99341,3.52152 2.11857,7.78464 2.50039,9.4736 0.38178,1.68896 1.35934,4.3286 2.17235,5.86586 1.83313,3.46623 4.17216,4.87569 9.79706,5.90354 2.1252,0.38834 4.27012,0.78871 4.76646,0.88972 1.7529,0.35673 5.0422,0.25489 12.09463,-0.37447 z m 106.31051,-13.79296 c 6.28071,-7.11593 14.351,-20.67489 14.77469,-24.82311 0.29785,-2.91658 -0.77316,-4.26151 -5.9107,-7.42235 -2.42021,-1.48903 -5.73956,-3.86301 -7.37632,-5.27551 -3.0719,-2.65103 -6.70417,-4.4039 -15.66106,-7.55774 -2.23354,-0.78646 -4.50593,-1.72016 -5.04969,-2.07491 -2.25276,-1.46955 -9.17222,-2.68941 -15.2552,-2.68941 -5.28581,0 -6.24511,0.12914 -9.70122,1.306 -2.10946,0.7183 -4.21995,1.57007 -4.68994,1.89283 -2.29084,1.57318 -3.36506,5.69852 -1.81814,6.98234 0.78291,0.64976 1.78909,0.4441 6.73369,-1.3763 2.06112,-0.75883 3.41925,-0.95661 5.69006,-0.82863 3.68091,0.20744 5.46332,1.41159 7.81165,5.27732 2.8069,4.62068 2.09063,7.66694 -3.43288,14.60001 -0.89581,1.1244 -0.92505,1.33878 -0.33598,2.46293 0.97481,1.86037 12.60211,13.45717 14.4074,14.36965 0.8686,0.43903 3.91433,2.34661 6.76829,4.23907 8.57435,5.68564 8.82175,5.70305 13.04535,0.91781 z m -183.1233,-9.87587 c 1.38249,-0.22648 4.20807,-1.06524 6.27908,-1.8639 3.27635,-1.2635 4.26123,-1.92771 7.58166,-5.11306 4.19707,-4.0263 6.97708,-7.65937 9.36196,-12.23478 1.36561,-2.61996 1.56252,-3.41247 1.56252,-6.28759 0,-9.67131 -3.88838,-15.93708 -14.2316,-22.93271 -4.10578,-2.77694 -4.98205,-3.16949 -9.77964,-4.38114 -4.95561,-1.25156 -13.18284,-3.8267 -15.69609,-4.9129 -0.62042,-0.26815 -2.34507,-0.8272 -3.83261,-1.24235 -2.39007,-0.66704 -3.20339,-1.23594 -6.99391,-4.89218 -4.98994,-4.8132 -7.18463,-6.39066 -12.2942,-8.83667 -5.73364,-2.74473 -13.05166,-3.45377 -15.04749,-1.45792 -0.69389,0.69389 -0.6804,0.79918 0.19321,1.5066 0.5166,0.41832 2.31205,1.13216 3.98986,1.58632 2.58238,0.69902 3.38424,1.1749 5.22472,3.10068 4.59752,4.81066 5.4663,9.01045 3.31051,16.00384 -2.03419,6.59888 -1.7141,7.80101 2.82761,10.61935 1.08306,0.67207 2.84986,2.03376 3.92629,3.02597 1.13689,1.04795 2.29725,1.73928 2.76868,1.64956 0.4463,-0.085 1.45961,-1.16776 2.25177,-2.40621 2.55656,-3.99699 3.663,-5.02757 7.46195,-6.95029 8.95342,-4.53152 17.40197,-3.97895 26.09124,1.70647 3.90052,2.55213 4.61837,3.28982 7.15458,7.35207 2.53455,4.05955 3.07809,6.80879 2.33434,11.80774 -0.50884,3.42014 -0.86503,4.33783 -3.04325,7.8407 -4.12045,6.62623 -8.21585,9.6967 -14.88172,11.15731 -4.30752,0.94384 -5.69502,0.88394 -9.343,-0.40338 -4.32877,-1.52754 -7.76589,-3.70395 -9.94041,-6.29435 -3.47548,-4.14013 -3.85951,-4.46344 -4.58566,-3.86077 -0.37104,0.30794 -0.65788,1.31507 -0.65788,2.31008 0,4.35217 2.99574,7.83724 9.5858,11.15169 6.6337,3.33638 12.0593,4.29411 18.42168,3.25182 z m -46.08085,-4.98447 c 0.93353,-0.49959 2.28069,-3.55887 2.28069,-5.17909 0,-2.62662 -3.32978,-3.44535 -4.92145,-1.21008 -2.11365,2.96835 -2.26301,5.36955 -0.39017,6.27214 1.31417,0.63334 2.01559,0.66042 3.03093,0.11703 z m -224.23849,-3.28451 c -0.004,-0.55838 -0.84251,-3.14725 -1.86378,-5.75305 -1.02125,-2.60579 -2.6268,-6.99633 -3.56786,-9.75675 -2.160096,-6.33619 -4.282906,-9.55453 -8.039269,-12.18813 -4.95458,-3.47369 -5.73971,-2.04401 -2.40573,4.38066 11.219299,21.61984 12.887049,24.33252 14.959589,24.33252 0.65944,0 0.922,-0.29067 0.91705,-1.01525 z m 270.3609,-4.97434 c 7.9462,-4.44377 10.53363,-8.81207 9.40486,-15.87791 -0.9084,-5.68642 -3.87296,-9.59609 -9.27171,-12.22767 -2.36177,-1.15121 -3.28479,-1.33003 -7.59994,-1.47232 -8.93491,-0.29461 -11.74687,1.45205 -14.33831,8.9062 -1.22682,3.52891 -1.23635,10.95482 -0.0176,13.68102 1.09998,2.46044 5.25012,6.36814 8.31552,7.82978 2.10336,1.0029 2.85027,1.11671 6.44956,0.98273 3.71453,-0.13826 4.33216,-0.2977 7.05757,-1.82183 z m -16.18079,-9.89201 c -1.4374,-0.69448 -2.53851,-3.27854 -2.18958,-5.1385 0.33295,-1.77476 1.33109,-2.44332 3.64779,-2.44332 1.27948,0 2.00152,0.34744 3.18818,1.53414 1.85939,1.85938 1.96109,3.3039 0.36603,5.19953 -1.25055,1.48615 -3.05863,1.7921 -5.01242,0.84815 z m 71.26365,11.36145 c 7.04449,-0.80715 11.70626,-2.44291 16.92669,-5.93938 8.87712,-5.9456 13.31726,-10.55175 11.86189,-12.30539 -0.85122,-1.02562 -2.14085,-0.85985 -4.74516,0.60993 -1.27515,0.71964 -3.01749,1.51943 -3.87187,1.7773 -0.85438,0.25788 -3.68543,1.30419 -6.29122,2.32516 -5.44997,2.13533 -9.97236,2.93442 -19.192,3.39116 -7.77591,0.38522 -12.33102,-0.20522 -16.60718,-2.15262 -4.36524,-1.988 -5.1241,-1.32645 -5.21682,4.54792 -0.0742,4.70073 0.0569,4.79438 9.20501,6.57719 8.79743,1.71447 11.58304,1.89603 17.93066,1.16873 z m -90.15477,-1.98135 c 1.76996,-0.73954 2.22528,-1.8242 2.14578,-5.11162 -0.0621,-2.56926 -0.9819,-4.80511 -2.25755,-5.48781 -0.44449,-0.2379 -2.72672,-0.96995 -5.07152,-1.62678 -2.94372,-0.8246 -4.87981,-1.6725 -6.25508,-2.73937 -1.09543,-0.84982 -2.31931,-1.54512 -2.71973,-1.54512 -1.85722,0 -4.08732,2.86431 -4.08732,5.24976 0,1.74206 1.62533,4.88937 2.82463,5.4697 0.5559,0.269 2.22903,1.02437 3.71805,1.67862 1.48902,0.65424 3.24282,1.70173 3.89732,2.32775 1.19546,1.14345 3.98106,2.36379 5.48002,2.40071 0.44224,0.0109 1.4887,-0.26624 2.3254,-0.61584 z m 182.65552,-7.05666 c 1.1035,-1.36279 0.9986,-3.23889 -0.24654,-4.40865 -1.28278,-1.20512 -4.95155,-1.81565 -5.94685,-0.98964 -1.31617,1.09235 -0.43566,5.76015 1.2251,6.49429 1.21135,0.53549 4.17694,-0.11872 4.96829,-1.096 z m -84.48628,-5.88619 c 4.90648,-0.58643 7.20797,-1.41579 10.77238,-3.88199 1.58179,-1.09444 3.79412,-2.42147 4.91631,-2.94894 1.12213,-0.52748 2.82292,-1.70355 3.77946,-2.61349 1.52963,-1.45511 1.73918,-1.90624 1.73918,-3.74439 0,-2.6794 -1.30488,-3.73186 -4.07731,-3.28853 -3.39841,0.54343 -5.90886,-1.67028 -6.75481,-5.95635 -1.0281,-5.20884 -1.81024,-6.85888 -4.79082,-10.10677 -1.58238,-1.7243 -2.87707,-3.4035 -2.87707,-3.73156 0,-0.32806 0.49228,-1.65902 1.09394,-2.95767 1.27424,-2.75033 1.06492,-3.8099 -1.2344,-6.24785 -1.67439,-1.7753 -8.90609,-7.25543 -10.98752,-8.32624 -0.78471,-0.4037 -1.90148,-1.32197 -2.48171,-2.04059 -1.46005,-1.80832 -2.62045,-2.31159 -6.07328,-2.63403 -2.25041,-0.21014 -3.26317,-0.53832 -4.12437,-1.33645 -0.62783,-0.58184 -1.43375,-1.0579 -1.79098,-1.0579 -0.35723,0 -2.09208,-0.71067 -3.85522,-1.57927 -1.76314,-0.8686 -3.56861,-1.57927 -4.01211,-1.57927 -0.44355,0 -2.1321,-0.49899 -3.75243,-1.10887 l -2.94602,-1.10887 -12.29294,0.41796 c -17.22887,0.58579 -21.6996,1.39505 -27.4813,4.9745 -1.57322,0.974 -4.6879,2.77884 -6.92144,4.01075 -2.25068,1.24138 -5.00073,3.20648 -6.16917,4.40829 -3.24679,3.33957 -3.19089,3.653 1.54417,8.66292 2.04741,2.16625 4.28861,4.68642 4.98042,5.60038 1.58031,2.08769 3.26196,2.96337 6.77845,3.52969 1.52436,0.24548 3.3855,0.82317 4.13593,1.28376 1.12313,0.68934 7.23697,2.63452 17.38265,5.53046 4.19156,1.19641 11.42204,6.18485 15.46736,10.67121 1.8809,2.086 5.0741,6.90949 6.80895,10.28533 3.31199,6.44481 7.43813,7.92701 21.04077,7.5584 4.59116,-0.12442 10.07348,-0.4325 12.18293,-0.68462 z m -99.94352,-5.08622 c 1.94403,-2.967 -3.53021,-6.91035 -6.06886,-4.37168 -1.52522,1.52521 -1.12413,3.6482 0.87821,4.64849 2.28637,1.14216 4.33238,1.03306 5.19065,-0.27681 z m -16.36524,-9.11431 c 2.67009,-0.90979 5.12919,-3.32098 6.61244,-6.48363 1.011,-2.1556 1.19988,-3.24578 1.33213,-7.68851 0.21433,-7.20084 -0.70467,-9.80512 -4.07988,-11.56124 -1.57038,-0.81706 -2.79833,-0.79892 -6.30304,0.0931 -3.74936,0.95431 -3.80586,0.98942 -7.17778,4.46166 -4.04716,4.16764 -4.15487,4.44381 -3.9405,10.10355 0.1948,5.14268 0.6499,6.51683 2.918,8.81004 3.02127,3.05479 6.28282,3.74919 10.63863,2.26502 z m -8.28133,-6.74455 c -1.38041,-0.74564 -2.69825,-3.27031 -2.75537,-5.27851 -0.0298,-1.04155 0.33255,-1.74094 1.39152,-2.68712 1.62127,-1.4486 2.5812,-1.58746 4.01779,-0.58123 1.30213,0.91205 2.5479,5.07409 1.97206,6.58862 -0.79907,2.10176 -2.79562,2.94693 -4.626,1.95824 z m 147.3368,-3.108 c 6.12725,-4.37232 8.85527,-9.84886 6.84365,-13.73885 -0.35272,-0.68213 -1.68648,-1.80907 -2.96388,-2.50433 -2.10837,-1.14751 -2.66306,-1.24955 -6.01418,-1.10627 -3.00814,0.12861 -4.18781,0.40844 -6.37207,1.51149 -3.23931,1.63585 -4.16025,2.8068 -3.21616,4.08914 0.57661,0.78323 1.14961,0.86357 5.50176,0.77147 3.96158,-0.0838 5.00841,0.0332 5.67229,0.63396 1.88185,1.70308 0.38155,3.94118 -4.19743,6.26153 -3.10213,1.57197 -3.88441,3.40764 -2.3722,5.56663 1.10987,1.58456 3.52204,1.08142 7.11822,-1.48477 z m -78.24672,-47.64894 c 1.82802,-1.82799 0.69221,-5.86586 -1.64998,-5.86586 -1.62723,0 -4.21588,2.68745 -4.21588,4.37683 0,1.79914 0.7488,2.39147 3.02317,2.39147 1.33864,0 2.22009,-0.27983 2.84269,-0.90244 z M 29.497321,885.89316 c -1.00378,-1.68959 -1.82505,-3.32526 -1.82505,-3.63485 0,-0.30953 -0.68725,-2.22672 -1.5272,-4.26032 -1.7242,-4.17446 -3.11743,-8.72781 -3.89253,-12.72187 -0.28896,-1.48902 -0.8922,-4.23018 -1.34044,-6.09146 -0.44829,-1.86129 -1.05067,-6.12531 -1.33868,-9.47562 -0.28797,-3.3503 -0.76085,-7.30976 -1.0508,-8.79878 -0.76012,-3.90365 -0.71491,-25.09413 0.0645,-30.23172 0.88619,-5.84148 3.25108,-13.74993 5.64678,-18.88346 1.14078,-2.44444 2.29021,-5.24682 2.55427,-6.22751 0.44684,-1.65936 1.47152,-2.65323 2.09384,-2.03089 0.4292,0.42921 -0.75525,4.19153 -3.00481,9.5443 -2.21671,5.27467 -4.13976,12.73361 -5.00231,19.40244 -0.60098,4.64641 -0.56195,18.31648 0.0616,21.60478 0.23025,1.21409 0.41864,3.99685 0.41864,6.18391 0,2.18707 0.40145,6.06804 0.8921,8.62438 0.49066,2.55638 1.20638,6.77993 1.59051,9.38573 1.14443,7.7635 1.43104,9.03481 3.15317,13.98781 0.90605,2.60579 1.79454,5.65152 1.97444,6.76829 0.18848,1.16992 1.03555,3.07976 1.99868,4.5062 1.08072,1.60056 1.67159,2.99614 1.67159,3.94817 0,2.36141 -1.12625,1.78741 -3.13837,-1.59953 z M 8.7627413,841.86292 c -0.28603,-0.34463 -0.72087,-3.13655 -0.96633,-6.20427 -0.24542,-3.06771 -0.64267,-7.50663 -0.88277,-9.86425 -0.46692,-4.58536 -0.23612,-15.36939 0.48908,-22.85156 0.77154,-7.95998 3.8379797,-15.99427 10.7387997,-28.13626 2.25917,-3.97498 3.92836,-5.33167 5.10817,-4.15187 0.41404,0.41407 0.27254,0.8194 -0.62147,1.77999 -0.63671,0.68411 -2.22325,3.37584 -3.52565,5.98164 -1.3024,2.60579 -2.7074,5.24543 -3.12221,5.86585 -1.63215,2.44121 -4.25356,9.32384 -5.24164,13.7622 -1.2113897,5.4416 -1.6653197,14.10541 -1.3757697,26.25856 0.15549,6.52807 0.48082,12.39012 0.7228597,13.02678 0.73742,1.93956 0.45325,5.1598 -0.4553297,5.1598 -0.19127,0 -0.58171,-0.28197 -0.86774,-0.62661 z M 634.11147,530.77183 c 0,-0.20688 0.76143,-1.18549 1.69207,-2.17468 1.82983,-1.94496 5.78328,-4.62534 11.84452,-8.03042 2.10946,-1.18504 4.44452,-2.71815 5.18904,-3.40691 2.34377,-2.16826 3.92534,-2.70618 7.98672,-2.71644 3.80861,-0.01 7.99548,-0.98118 13.44621,-3.12015 7.05838,-2.76985 20.67795,-5.74495 29.10367,-6.35749 3.47439,-0.25258 8.34756,-0.65066 10.82927,-0.88461 7.54945,-0.71169 11.96937,-0.54789 18.09264,0.67049 3.11811,0.62043 6.27363,1.12805 7.01232,1.12805 4.38477,0 18.41563,4.7925 20.15039,6.88275 0.2918,0.35163 1.93776,1.20581 3.65767,1.89819 1.71987,0.69237 4.51468,2.34035 6.21068,3.66216 1.696,1.32181 4.09888,2.9496 5.33973,3.61729 4.30775,2.31797 6.02961,4.15596 4.9266,5.25894 -0.42049,0.42049 -2.93915,-0.79383 -7.21554,-3.4788 -2.18919,-1.37448 -4.22933,-2.49906 -4.53363,-2.49906 -0.30431,0 -1.13089,-0.48601 -1.83683,-1.08002 -0.70593,-0.59401 -2.80279,-1.84883 -4.65965,-2.78848 -1.85682,-0.93965 -4.7282,-2.48232 -6.38084,-3.42815 -1.65263,-0.94584 -4.08922,-1.93502 -5.41463,-2.19818 -1.32541,-0.26316 -2.88871,-0.67672 -3.47394,-0.91902 -3.50088,-1.44946 -10.52357,-2.28712 -21.27131,-2.53722 -9.70036,-0.22573 -11.99477,-0.13686 -18.72561,0.7253 -14.78169,1.8934 -19.03073,2.79504 -28.87806,6.12785 -3.22622,1.09192 -7.13933,2.30819 -8.69577,2.70284 -1.55644,0.39465 -3.38388,0.94967 -4.06098,1.23339 -0.6771,0.28372 -2.7699,0.53731 -4.65067,0.56355 -3.28051,0.0458 -3.69342,0.18028 -10.15245,3.30742 -3.70308,1.79284 -6.96431,3.25845 -7.24723,3.25692 -0.28291,-10e-4 -1.72154,0.88588 -3.19698,1.97203 -3.73353,2.74846 -5.08741,3.4437 -5.08741,2.61246 z m -29.58232,-17.71707 c -0.43629,-0.7059 4.66958,-5.2887 9.72865,-8.73205 2.35763,-1.60466 5.50488,-3.89761 6.99391,-5.09545 13.41485,-10.79155 19.22981,-14.38572 26.84757,-16.59423 2.35763,-0.68351 6.7216,-2.229 9.69771,-3.43442 2.97611,-1.20542 6.46043,-2.38564 7.74289,-2.62272 1.28245,-0.23708 3.6191,-0.97292 5.19254,-1.6352 8.75154,-3.68367 22.59298,-7.84428 27.67786,-8.31972 8.52887,-0.79747 12.3243,-1.37069 14.86629,-2.24527 3.09149,-1.06363 8.05432,-1.9936 14.82342,-2.77773 3.90387,-0.45222 5.29322,-0.45195 6.98809,0.001 2.41745,0.64658 3.70636,1.63352 3.70636,2.83807 0,0.86304 -1.52842,1.1937 -1.99886,0.43244 -0.46611,-0.75416 -3.28167,-0.96889 -6.39382,-0.48764 -1.71238,0.26479 -4.63629,0.67157 -6.49757,0.90395 -1.86128,0.23239 -5.80205,1.13577 -8.75727,2.00752 -3.06725,0.9048 -7.81147,1.88405 -11.05488,2.28182 -3.12497,0.38325 -7.20462,1.20939 -9.06591,1.83587 -1.86128,0.62647 -4.57884,1.32926 -6.03903,1.56174 -1.46019,0.23248 -4.20135,1.11476 -6.09146,1.96062 -1.89012,0.84585 -6.07622,2.47372 -9.30244,3.61747 -3.22622,1.14376 -6.40479,2.37977 -7.06353,2.7467 -0.65873,0.36693 -1.62046,0.66715 -2.1372,0.66715 -1.70845,0 -14.6451,4.46795 -18.54929,6.40639 -2.10945,1.04736 -5.28798,2.82631 -7.06339,3.95322 -1.77542,1.12691 -5.18925,3.26722 -7.58631,4.75624 -7.39595,4.59431 -9.34278,5.92958 -13.77714,9.44922 -2.35762,1.8713 -5.09878,3.98114 -6.09146,4.68854 -2.85352,2.03347 -6.12716,2.91796 -6.79573,1.83612 z"
       id="path3347"
       inkscape:connector-curvature="0" />
  </g>
</svg>
